<svg xmlns="http://www.w3.org/2000/svg" width="88.03" height="83.74" viewBox="0 0 88.03 83.74">
  <defs>
    <style type="text/css">
      .a {
        fill: #e6e6e6;
      }

      .a, .b, .c, .d, .e, .f {
        stroke: #000;
        stroke-miterlimit: 10;
      }

      .b {
        fill: #fff;
      }

      .c {
        fill: #f5c7c7;
      }

      .c, .d, .f {
        stroke-width: 0.5px;
      }

      .e {
        fill: #ccc;
      }

      .f {
        fill: none;
      }
    </style>
  </defs>
  <title>Cat_1D_body</title>
  <g>
    <path class="a" d="M33.5,59.24c-.28.73-.65,1.75-1,3a32.4,32.4,0,0,0-1,11,37.59,37.59,0,0,0,2,10h45a10.17,10.17,0,0,0,9-11v-28a28.53,28.53,0,0,0-7-5,29,29,0,0,0-14-3,49.29,49.29,0,0,1-17,17A48.46,48.46,0,0,1,33.5,59.24Z"/>
    <path class="a" d="M61.5,12.24c-8.81-9.33-21.41-9-24-9-1.78,0-20.27.76-29,16-1,1.66-6.3,11.38-3,23,.7,2.45,3.33,11.73,12,16,5.75,2.84,11.11,2,17,1,3.37-.55,20.48-3.7,30-18a21.91,21.91,0,0,0,4-9C70.21,22.05,63,13.81,61.5,12.24Z"/>
    <path class="b" d="M39.42,16c-2.88,1.12-3.59,5.25-3.77,6.3s-1.09,6.36,2.52,8.81a7.31,7.31,0,0,0,7.55,0,7.92,7.92,0,0,0,3.77-7.55C49,18.57,43.09,14.62,39.42,16Z"/>
    <path class="b" d="M18,28.62c1.41-2.34,4.4-4.36,7.55-3.78,4.74.88,5.84,6.92,5.92,7.4.15.89.88,5.24-2.14,7.71-2.6,2.12-6.43,1.6-8.81,0A8.71,8.71,0,0,1,18,28.62Z"/>
    <path class="c" d="M38.5,37.24c-1.78.85-2.91.56-3,1-.16.78,2.92,3.18,5,2s1.76-4.66,1-5C41,35,40.49,36.3,38.5,37.24Z"/>
    <path class="d" d="M27.5,34.24c.28-.09.77.51,1,1,.38.82.33,1.89,0,2s-.77-.51-1-1C27.12,35.43,27.17,34.36,27.5,34.24Z"/>
    <path class="d" d="M39.5,27.24a1.41,1.41,0,0,0,2,2C41.78,28.62,40.13,27,39.5,27.24Z"/>
    <path class="e" d="M33.5,8.24c-.94-1,0-4.24,2-6,4.91-4.26,16.13.43,16,2,0,.48-1.11.76-2,1-2.56.69-3.72-.39-6,0-1.62.28-1.36.89-4,2C38,7.88,34.54,9.34,33.5,8.24Z"/>
    <path class="e" d="M8.5,25.24c-1.69-1.28-5.4.46-7,3a7.31,7.31,0,0,0-1,4c0,3.76,2.11,7.2,3,7s-.26-3.72,2-6c1.17-1.17,2.05-.8,3-2C9.87,29.52,9.93,26.33,8.5,25.24Z"/>
    <path class="f" d="M39.5,45.24a8,8,0,0,0,3-1,8.13,8.13,0,0,0,3-3"/>
    <path class="f" d="M40.5,40.24a5,5,0,0,1,2,4"/>
  </g>
</svg>
