<svg xmlns="http://www.w3.org/2000/svg" width="18.41" height="11.36" viewBox="0 0 18.41 11.36">
  <defs>
    <style type="text/css">
      .a {
        fill: #ccc;
        stroke: #000;
        stroke-miterlimit: 10;
      }
    </style>
  </defs>
  <title>Cat_1D_paw_left</title>
  <path class="a" d="M1.07,9.84c-1.26-1.53-.21-4.44,1-6,3-3.91,10.79-4.57,14-1,1.83,2,2.55,5.85,1,7-1.06.79-3.08.25-5-1a2.92,2.92,0,0,1-1,1,3,3,0,0,1-3,0,2.84,2.84,0,0,1-1-1,4.16,4.16,0,0,1-3,2A3.73,3.73,0,0,1,1.07,9.84Z"/>
</svg>
