<svg xmlns="http://www.w3.org/2000/svg" width="311.86" height="317.78" viewBox="0 0 311.86 317.78">
  <defs>
    <style>
      .a {
        fill: #ccc;
      }

      .a, .b, .c, .d, .e, .f, .g, .h, .i, .j {
        stroke: #000;
        stroke-miterlimit: 10;
      }

      .b {
        fill: #f5c7c7;
      }

      .b, .f, .i, .j {
        stroke-width: 0.5px;
      }

      .c {
        fill: #e6e6e6;
      }

      .d, .i {
        fill: none;
      }

      .e {
        fill: #fff;
      }

      .g {
        fill: gray;
      }

      .h, .j {
        fill: #e69573;
      }
    </style>
  </defs>
  <title>Cat_pause_DT</title>
  <g>
    <path class="a" d="M41.15,45.86c.62-8,1.59-16.24,3-24.81.39-2.36.81-4.68,1.24-7l19.29-1.45a41.44,41.44,0,0,0-13,12.11A36.61,36.61,0,0,0,45.3,45.18Z"/>
    <path class="b" d="M45.71,42.86a38.15,38.15,0,0,1,2.9-16.25,23.26,23.26,0,0,1,3.88-6.52,24.26,24.26,0,0,1,10.94-6.73,27.81,27.81,0,0,1,11,9.17,22.59,22.59,0,0,1,4.07,14.28Z"/>
    <path class="a" d="M50.53.6C61.82-.29,70.37,4.88,73.85,7c8.86,5.5,13.15,12.49,16,17.13a57.24,57.24,0,0,1,5.84,13l-16.23-.42A76.38,76.38,0,0,0,71.36,21,82.42,82.42,0,0,0,62.47,9.85q2.22,2.79,4.45,5.56A36.05,36.05,0,0,0,50.68,15c-8,1.78-11.8,6-14.43,4.69-1.68-.87-2.84-4-.15-14.39A32.5,32.5,0,0,1,50.53.6Z"/>
    <path class="a" d="M127.9,45.72c5.81-5.48,12.11-11,18.91-16.35,1.87-1.48,3.74-2.93,5.6-4.33l15.26,11.89a41.23,41.23,0,0,0-17.78.21A36.6,36.6,0,0,0,131.44,48Z"/>
    <path class="b" d="M133.3,46.57a38.07,38.07,0,0,1,13.07-10.1,22.88,22.88,0,0,1,7.25-2.21,24.14,24.14,0,0,1,12.63,2.36,27.88,27.88,0,0,1,2,14.21,22.6,22.6,0,0,1-6.58,13.3Z"/>
    <path class="a" d="M165.26,18.5c9,6.93,11.83,16.51,13,20.43,2.88,10,1.36,18.09.33,23.43a57.73,57.73,0,0,1-4.4,13.54L162.4,64.68A76.6,76.6,0,0,0,167,47.59a81.62,81.62,0,0,0,.88-14.21c-.14,2.37-.29,4.73-.44,7.1a36,36,0,0,0-11.74-11.22c-7.11-4-12.8-3.46-13.84-6.22-.66-1.77.59-4.89,9.56-10.76A32.5,32.5,0,0,1,165.26,18.5Z"/>
    <path class="a" d="M207.16,223c19.24-6.25,48.55-19.24,73.06-46.83,11-12.41,25.17-28.76,29.43-54.21,1.59-9.46,7.52-44.84-18.49-67.23-18-15.45-52.65-26-70-10.9-12.87,11.22-13.59,34.34-3,47.25,11,13.43,27.58,7.64,35.81,20,9.85,14.85-4.57,39.76-11.14,51.31-11.89,20.9-28.36,34.31-41.67,42.57"/>
    <path class="c" d="M41.16,152a136,136,0,0,0-17,47c-5.3,32.84,3.25,58,5,63a120.33,120.33,0,0,0,6,14c34.76,3.42,62.84,6.67,82,9,29.94,3.63,41.51,1.16,60,4,3.26.5,40.83,5.63,66-22,16.76-18.39,17.87-40.14,18-45,.74-27.05-14.58-45.16-19-50-3.43-3.76-19.3-21.39-43-23a51.77,51.77,0,0,0-7,0"/>
    <path class="d" d="M139.16,187a127.37,127.37,0,0,1-2,47,127.51,127.51,0,0,1-21,46"/>
    <path class="c" d="M153,52.9C126,36.22,99.74,36.05,89.52,36.12,75.8,36.21,56,36.53,36.15,49.6,31.3,52.8,5.68,69.69,1.16,102c-3.35,24,6.9,42.5,11,49,11.34,17.93,27.23,25.8,36,30,39.54,18.94,109.56,23.05,137.55-18.44C198,144.42,200.77,119.65,194,98.83,185.64,73.09,165.36,60.56,153,52.9Z"/>
    <path class="b" d="M72.94,133.41c-2.83-.7-3.78-2.82-5-2.24-.76.37-.94,1.55-1,2.09-.45,3,2.12,5.18,2.54,5.54,3.16.75,6.1.09,7.44-1.76.59-.82,1.17-2.28.61-3.09S75.37,134,72.94,133.41Z"/>
    <path class="d" d="M57.66,147.28a15.49,15.49,0,0,0,4.76,3.25c6.6,3.06,15,3,17.24,3"/>
    <path class="a" d="M29.12,286c-3.14-4.28.25-11.78,3.81-15.67,9-9.77,30.22-10.08,38.29,0,4.6,5.74,5.87,15.93,1.45,18.69-3,1.9-8.43.09-13.43-3.57a7.84,7.84,0,0,1-2.9,2.45,8.39,8.39,0,0,1-8.17-.56,7.84,7.84,0,0,1-2.54-2.83,11.23,11.23,0,0,1-8.52,4.73C36.82,289.26,31.56,289.37,29.12,286Z"/>
    <path class="a" d="M117.16,286c1.33-4.35-1.8-8.42-3-10-7.13-9.26-25.93-13.8-34.37-5-4.88,5.09-7.34,15-3.73,18.34,2.47,2.27,7.55,1.18,12.51-1.8a7.66,7.66,0,0,0,2.29,2.81,7,7,0,0,0,7.4.51,7.54,7.54,0,0,0,2.65-2.47,9.47,9.47,0,0,0,9.25,3.61A9.11,9.11,0,0,0,117.16,286Z"/>
    <path class="d" d="M184.16,195c-4.62.47-20.67,2.67-32,16-16,18.88-9,44.17-8,48a57.5,57.5,0,0,0,6,14"/>
    <path class="a" d="M178.16,285c-.32-2.37-2.68-6.15-23-11-17.4-4.15-26.21-6.15-31.37-2-5.44,4.37-7.73,13.7-4.63,17,1.65,1.75,5.2,2.24,8,1a8.23,8.23,0,0,0,4-4,8.75,8.75,0,0,0,8,5,9.07,9.07,0,0,0,7-4,32.43,32.43,0,0,0,4,2c10.72,4.44,21.38,1.9,27,0A6.2,6.2,0,0,0,178.16,285Z"/>
    <path class="d" d="M77.16,220a101.1,101.1,0,0,0-2,49"/>
    <path class="e" d="M100.59,82.67a40.8,40.8,0,0,0-11.77,10C82.06,101.14,76,115.81,81.23,128S99.67,142.41,104,143.17c10.49,1.84,30.54.61,39.18-14.53,6.87-12,2.16-25.15,1.29-27.45,4.14,2,8.74,4.19,8.75,4.17a79.22,79.22,0,0,0-13.13-6.26c-17.59-6.39-25.38-.33-33.27-7.45-6.58-5.92-7.75-16.05-8.12-15.88C98.5,75.88,99.55,79.37,100.59,82.67Z"/>
    <path class="e" d="M21.43,92.92a36.64,36.64,0,0,1,8.28-14.5c-2.58-1-4.22-1.75-4.14-2.07.23-.82,11.68,3.6,22.78,2.07C54.05,77.64,62.08,75,71.12,66L67,70.14A43.69,43.69,0,0,1,75.14,82.6c1.78,4.15,8,18.38.67,31.7-.75,1.36-6.89,12.31-19.82,15.18-14.38,3.19-30.23-5.14-34.83-17.48C18.18,104,20.55,95.9,21.43,92.92Z"/>
    <path class="f" d="M30.68,89.67c2.39-.2,4.66,2.64,4.23,5.2a4.18,4.18,0,0,1-4,3.54,4.23,4.23,0,0,1-3.74-3.82C26.91,92.29,28.58,89.84,30.68,89.67Z"/>
    <path class="f" d="M93.93,105.56c2.13,1.1,2.55,4.7.82,6.65a3.86,3.86,0,0,1-6.39-4.33C89.34,105.79,92.06,104.59,93.93,105.56Z"/>
    <path class="g" d="M58.16,160c-.48,1.28,1.92,3.27,3,4,1.56,1.05,5,2.68,7,1a3.68,3.68,0,0,0,1-4C67.68,157.63,59,157.88,58.16,160Z"/>
    <path class="h" d="M16.1,218.74C6,202,11.37,177.71,22.42,162.12,31.75,149,45.56,141.41,56.5,141.87c2.06.09,6.37.33,8.81,3.39,2.88,3.6,2.26,10-.65,13.66-3.63,4.6-8.64,2.36-17.2,6C44.85,166.07,38,169,33.92,175.61c-5.83,9.52-4.44,24.65,2.71,33.54,3.2,4,6,4.81,6.38,8.11.63,5.75-6.89,12.86-14.17,12.1C22.06,228.65,17.65,221.32,16.1,218.74Z"/>
    <path class="h" d="M129.34,188.53c-13.29,8.59-33.32,4.65-46.48-4.13C71.76,177,65.05,165.8,65,156.81c0-1.69,0-5.23,2.42-7.29,2.83-2.43,8-2.05,11.18.28,3.9,2.89,2.26,7,5.59,14,1,2.12,3.7,7.73,9.24,10.91,8,4.6,20.3,3.18,27.28-2.85,3.13-2.7,3.7-5,6.38-5.4,4.67-.61,10.77,5.42,10.43,11.41C137.2,183.45,131.39,187.21,129.34,188.53Z"/>
    <path class="h" d="M194.32,206c2.41-16.67-9.09-33.8-22.19-42.12-11.06-7-23.76-8.11-31.83-3.9-1.52.79-4.68,2.49-5.57,5.75-1,3.83,1.37,8.59,4.7,10.46,4.13,2.33,7.2-1.18,14.76-1.31,2.31,0,8.41-.15,13.46,3.59,7.31,5.41,10.92,17.76,8.29,27.23-1.17,4.24-3,5.88-2.29,8.59,1.3,4.72,9.14,7.65,14.36,4.5C192.89,215.88,193.94,208.59,194.32,206Z"/>
    <path class="h" d="M279.32,298c2.41-16.67-9.09-33.8-22.19-42.12-11.06-7-23.76-8.11-31.83-3.9-1.52.79-4.68,2.49-5.57,5.75-1,3.83,1.37,8.59,4.7,10.46,4.13,2.33,7.2-1.18,14.76-1.31,2.31,0,8.41-.15,13.46,3.59,7.31,5.41,10.92,17.76,8.29,27.23-1.17,4.24-3,5.88-2.29,8.59,1.3,4.72,9.14,7.65,14.36,4.5C277.89,307.88,278.94,300.59,279.32,298Z"/>
    <path class="h" d="M168,232.62c-2.11,14.61,8,29.64,19.52,36.95,9.72,6.16,20.88,7.12,28,3.43,1.34-.69,4.11-2.18,4.89-5,.93-3.36-1.2-7.54-4.13-9.19-3.64-2-6.33,1-13,1.15-2,0-7.38.13-11.82-3.16-6.42-4.75-9.61-15.57-7.3-23.87,1-3.72,2.67-5.16,2-7.54-1.15-4.14-8-6.71-12.62-4C169.3,224,168.37,230.37,168,232.62Z"/>
    <path class="c" d="M50.16,138c-.23,7.24,3.92,13,9,14,3.72.73,6.93-1.26,8-2a12.41,12.41,0,0,0,21,1"/>
    <path class="i" d="M69.16,140c-.34.94-.68,1.94-1,3-.41,1.41-.74,2.75-1,4"/>
    <path class="j" d="M263.39,311.2a24.58,24.58,0,0,1,1.77,2.8c.9,1.65,1.34,2.49,1,3-.44.68-2.13.72-3.15,0-.81-.55-1-1.24-1.69-1.43s-1,.29-1.67,0a1.72,1.72,0,0,1-1-1,1.78,1.78,0,0,1,.49-1.55c.45-.49.95-.55,1.86-.83A16.53,16.53,0,0,0,263.39,311.2Z"/>
    <path class="j" d="M38.21,227l-.05,0c0,.13,2-.11,4,0,1,.05,3.87.21,4,1,.11.63-1.54,1.75-3.08,2.17-.95.26-1.58.18-2.08.76s-.3,1-.85,1.44a1.36,1.36,0,0,1-1.36.34c-.2-.1-.32-.3-.63-1.71-.17-.83-.26-1.25-.28-1.5A6.4,6.4,0,0,1,38.21,227Z"/>
  </g>
</svg>
