<svg xmlns="http://www.w3.org/2000/svg" viewBox="0 0 281 280.78"><defs><style type="text/css">.cls-1{fill:#f5c7c7;}.cls-1,.cls-10,.cls-2,.cls-3,.cls-4,.cls-5,.cls-6,.cls-7,.cls-8,.cls-9{stroke:#000;stroke-miterlimit:10;}.cls-1,.cls-10,.cls-6,.cls-9{stroke-width:0.5px;}.cls-2{fill:#ccc;}.cls-3{fill:#e6e6e6;}.cls-4,.cls-9{fill:none;}.cls-5{fill:#fff;}.cls-7{fill:gray;}.cls-10,.cls-8{fill:#e69573;}</style></defs><title>Ресурс 56</title><g id="Слой_2" data-name="Слой 2"><g id="Светлые_котики" data-name="Светлые котики"><path class="cls-1" d="M41.42,43.9a34.66,34.66,0,0,1,3.5-11.76C52,17.9,67.28,10.62,73.38,8.06a138.51,138.51,0,0,1,12.76,15.8,14.37,14.37,0,0,1,2.53,5.39c1,5.08-1.63,9.44-3.48,11.83Z"/><path class="cls-2" d="M82.21,11.07A32,32,0,0,1,94,42.67L72.4,41.92a25.91,25.91,0,0,0,1.12-3,27.48,27.48,0,0,0,.84-3.81c1.47-10.64-6.29-21.93-6.29-21.93C62.41,5,55.37,1.16,55.53,1s4.32,2.49,8.06,7a33.64,33.64,0,0,1,3.59,5.25A34.82,34.82,0,0,0,53.75,20.1a32.7,32.7,0,0,0-4,4.09,39,39,0,0,0-4.8,8,37.11,37.11,0,0,0-3.63,12.39l-6.8,1.72a146.74,146.74,0,0,1,5.19-15.49A161.17,161.17,0,0,1,55.71.53C60.15,1.08,72.3,3,82.21,11.07Z"/><path class="cls-2" d="M187.18,203.08c17.23-5.47,43.48-16.83,65.43-41,9.87-10.85,22.54-25.16,26.36-47.42,1.42-8.28,6.73-39.24-16.56-58.82-16.08-13.52-47.15-22.77-62.69-9.54-11.53,9.82-12.17,30-2.68,41.34,9.86,11.75,24.69,6.69,32.06,17.53,8.82,13-4.09,34.79-10,44.9-10.64,18.28-25.39,30-37.31,37.24"/><path class="cls-3" d="M38.52,141a117.17,117.17,0,0,0-15.23,41.12,112.25,112.25,0,0,0,4.48,55.12,103.1,103.1,0,0,0,5.37,12.25c31.13,3,56.27,5.84,73.44,7.87,26.81,3.18,37.18,1,53.74,3.5,2.91.44,36.56,4.93,59.1-19.24a61.45,61.45,0,0,0,16.13-39.38c.65-23.66-13.07-39.51-17-43.74-3-3.17-17-18.39-38.51-20.13a52,52,0,0,0-8.06,0"/><path class="cls-4" d="M126.28,171.58a109,109,0,0,1-1.79,41.12A110.55,110.55,0,0,1,105.69,253"/><path class="cls-1" d="M123.46,61.28A88.6,88.6,0,0,1,140,48.71,91.35,91.35,0,0,1,175.2,36.93c.57,4.52,1.78,19.09-7.93,32.36A44.1,44.1,0,0,1,156.2,79.86Z"/><path class="cls-2" d="M172.75,70.29a70.73,70.73,0,0,1-13.09,15.39l-6.37-5.25a35.67,35.67,0,0,0,4.88-5.29c9.45-12.62,7.42-27.84,6.37-33.41,15.38-4.38,18.64-5.41,18.61-5.5S166.47,39.1,148.91,47a152.13,152.13,0,0,0-26,14.9l-6-1.56a88.94,88.94,0,0,1,14.94-13.53c7.92-5.69,19.09-13.7,34.09-13.87a44.74,44.74,0,0,1,17.24,3.32A69,69,0,0,1,172.75,70.29Z"/><path class="cls-3" d="M144.64,62.3C123.24,44,100.1,40.13,91.06,38.72c-12.13-1.89-29.69-4.45-49.12,4-4.76,2.07-29.87,13-38.61,40.21-6.49,20.24-.15,37.67,2.52,43.86,7.38,17.11,20.27,26.18,27.4,31.06,32.15,22,93.4,35.61,124.23,3.82,13.48-13.9,19.6-34.88,16.68-53.82C170.55,84.42,154.47,70.69,144.64,62.3Z"/><path class="cls-1" d="M62.13,120.31c-2.4-1-2.93-3-4.05-2.65-.73.22-1.06,1.21-1.21,1.66-.83,2.5,1.11,4.78,1.43,5.15,2.68,1.1,5.37,1,6.83-.45.64-.62,1.37-1.81,1-2.58C65.69,120.52,64.19,121.18,62.13,120.31Z"/><path class="cls-4" d="M46.6,130.09a13.53,13.53,0,0,0,3.72,3.49c5.38,3.58,12.86,4.75,14.8,5"/><path class="cls-2" d="M27.73,258.24c-2.81-3.75.22-10.32,3.42-13.72,8-8.54,27.05-8.81,34.28,0,4.13,5,5.26,13.94,1.3,16.35-2.72,1.66-7.54.08-12-3.13a7,7,0,0,1-2.6,2.15,7.68,7.68,0,0,1-7.32-.49,7,7,0,0,1-2.27-2.47A10.11,10.11,0,0,1,34.88,261C34.62,261.05,29.91,261.15,27.73,258.24Z"/><path class="cls-2" d="M106.58,258.2c1.19-3.8-1.61-7.37-2.69-8.74-6.38-8.1-23.22-12.07-30.78-4.38-4.37,4.45-6.58,13.14-3.34,16,2.21,2,6.76,1,11.21-1.57A6.58,6.58,0,0,0,83,262a6.39,6.39,0,0,0,6.63.44A6.74,6.74,0,0,0,92,260.29a8.6,8.6,0,0,0,8.28,3.16A8.1,8.1,0,0,0,106.58,258.2Z"/><path class="cls-4" d="M166.59,178.58c-4.15.41-18.52,2.34-28.66,14-14.36,16.52-8.11,38.65-7.17,42a49.44,49.44,0,0,0,5.38,12.25"/><path class="cls-2" d="M161.21,257.32c-.29-2.07-2.41-5.38-20.6-9.62-15.58-3.63-23.47-5.38-28.09-1.75-4.87,3.83-6.93,12-4.15,14.87,1.47,1.53,4.66,2,7.17.88a7.28,7.28,0,0,0,3.58-3.5,7.83,7.83,0,0,0,7.16,4.37,8.13,8.13,0,0,0,6.27-3.5,27.84,27.84,0,0,0,3.59,1.75c9.59,3.89,19.14,1.66,24.18,0A5.34,5.34,0,0,0,161.21,257.32Z"/><path class="cls-4" d="M70.76,200.45A86.57,86.57,0,0,0,69,243.33"/><path class="cls-5" d="M77.64,81.76c-9.06,6.62-15,20.43-10.33,32.28,4.53,11.58,16.64,16.7,19.46,17.89,11.54,4.88,27.67,5.08,37.66-5.19,7-7.18,9.76-18.14,6.93-27.23C125.39,80.34,94.5,69.46,77.64,81.76Z"/><path class="cls-5" d="M17.65,77.41c3.53-9.35,13.18-18,25.61-17.95A26.92,26.92,0,0,1,67.9,76.55a27.38,27.38,0,0,1-4,26.17l-.12.14a28.54,28.54,0,0,1-18.74,9.72c-12,1-24-7.15-27.75-18.32A25.5,25.5,0,0,1,17.65,77.41Z"/><path class="cls-6" d="M54.54,95.92a3.09,3.09,0,0,1,2.31,1.62c1.13,2.34-.53,6.92-3.19,7.22a4,4,0,0,1-3.9-3.39C49.3,98.5,52.16,95.62,54.54,95.92Z"/><path class="cls-6" d="M78.11,104.67c1.22,1.32,1,4.27-.11,6.08s-3.76,3-5.32,1.56c-1.31-1.21-1.38-3.73-.71-5.37C73.08,104.2,76.58,103,78.11,104.67Z"/><path class="cls-7" d="M45.17,141.14c-.62,1,1.21,3.09,2.06,3.88,1.22,1.14,4.07,3,6,1.87a3.19,3.19,0,0,0,1.47-3.31C53.93,140.46,46.19,139.43,45.17,141.14Z"/><path class="cls-8" d="M8,194.1c-9-14.66-4.23-35.9,5.66-49.53C22,133.06,34.4,126.44,44.19,126.85c1.85.08,5.7.29,7.89,3,2.58,3.15,2,8.71-.58,12-3.25,4-7.74,2.06-15.4,5.27-2.34,1-8.53,3.56-12.13,9.33-5.22,8.33-4,21.57,2.42,29.34,2.87,3.48,5.4,4.21,5.72,7.1.56,5-6.17,11.25-12.69,10.58C13.35,202.77,9.4,196.36,8,194.1Z"/><path class="cls-8" d="M109.43,167.67c-11.9,7.52-29.85,4.07-41.63-3.61-9.94-6.48-16-16.28-16-24.14,0-1.48,0-4.58,2.17-6.38,2.54-2.13,7.21-1.79,10,.24,3.49,2.53,2,6.16,5,12.25.91,1.86,3.32,6.77,8.27,9.55,7.17,4,18.19,2.78,24.44-2.5,2.8-2.36,3.31-4.41,5.71-4.72,4.18-.54,9.65,4.74,9.34,10C116.47,163.22,111.26,166.51,109.43,167.67Z"/><path class="cls-8" d="M167.62,183c2.16-14.58-8.14-29.57-19.87-36.85-9.9-6.15-21.28-7.09-28.51-3.42-1.36.7-4.19,2.19-5,5-.94,3.36,1.23,7.52,4.21,9.16,3.7,2,6.45-1,13.22-1.15,2.07,0,7.53-.13,12.06,3.15,6.54,4.73,9.78,15.53,7.42,23.82-1,3.71-2.73,5.14-2,7.52,1.16,4.13,8.18,6.69,12.86,3.93C166.34,191.6,167.28,185.22,167.62,183Z"/><path class="cls-8" d="M243.74,263.47c2.17-14.58-8.14-29.57-19.87-36.85-9.9-6.15-21.28-7.09-28.5-3.41-1.37.69-4.2,2.18-5,5-.94,3.35,1.23,7.52,4.21,9.16,3.71,2,6.46-1,13.23-1.16,2.06,0,7.52-.13,12.05,3.15,6.54,4.74,9.78,15.53,7.43,23.82-1.06,3.71-2.73,5.15-2.06,7.52,1.17,4.13,8.18,6.7,12.87,3.94C242.46,272.1,243.41,265.72,243.74,263.47Z"/><path class="cls-8" d="M144.09,206.25c-1.9,12.78,7.17,25.93,17.48,32.32,8.7,5.4,18.7,6.23,25.05,3,1.19-.61,3.68-1.91,4.38-4.41.82-2.94-1.08-6.59-3.7-8-3.26-1.79-5.68.9-11.63,1-1.81,0-6.61.11-10.58-2.76-5.76-4.16-8.61-13.63-6.54-20.89.92-3.25,2.39-4.51,1.8-6.6-1-3.62-7.2-5.87-11.31-3.45C145.21,198.69,144.38,204.28,144.09,206.25Z"/><path class="cls-3" d="M34.56,118.13c1.21,8.44,6.27,14.9,12.67,16.25a13.6,13.6,0,0,0,7.36-.58,17.79,17.79,0,0,0,6.19,6.33c8.38,5,18,.88,19,.42"/><path class="cls-9" d="M57.83,125.46c-.45.75-.89,1.57-1.33,2.44-.57,1.16-1.06,2.27-1.47,3.31"/><path class="cls-10" d="M229.48,275a24,24,0,0,1,1.59,2.46c.8,1.44,1.19,2.18.89,2.62-.4.6-1.91.63-2.82,0-.73-.48-.92-1.08-1.52-1.25s-.86.25-1.5,0a1.29,1.29,0,0,1-.43-2.25c.4-.43.85-.48,1.66-.73A13.82,13.82,0,0,0,229.48,275Z"/><path class="cls-10" d="M27.81,201.29s0,0,0,0,1.82-.09,3.58,0c.87,0,3.46.18,3.59.87s-1.39,1.54-2.76,1.9c-.86.23-1.43.16-1.87.67s-.27.86-.76,1.26a1.27,1.27,0,0,1-1.22.3c-.18-.09-.29-.26-.56-1.5-.16-.73-.24-1.1-.26-1.31A5.67,5.67,0,0,1,27.81,201.29Z"/></g></g></svg>