<svg xmlns="http://www.w3.org/2000/svg" viewBox="0 0 281 279.48"><defs><style type="text/css">.cls-1{fill:#f5c7c7;}.cls-1,.cls-2,.cls-3,.cls-4,.cls-5,.cls-6,.cls-7,.cls-8,.cls-9{stroke:#000;stroke-miterlimit:10;}.cls-1,.cls-6,.cls-8,.cls-9{stroke-width:0.5px;}.cls-2{fill:gray;}.cls-3{fill:#404040;}.cls-4,.cls-8{fill:none;}.cls-5{fill:#fff;}.cls-7,.cls-9{fill:#e69573;}</style></defs><title>Ресурс 55</title><g id="Слой_2" data-name="Слой 2"><g id="_7" data-name="7"><path class="cls-1" d="M41.42,43.7A34.42,34.42,0,0,1,44.92,32C52,17.82,67.28,10.58,73.38,8A137.38,137.38,0,0,1,86.14,23.75a14.27,14.27,0,0,1,2.53,5.37c1,5.05-1.63,9.39-3.48,11.77Z"/><path class="cls-2" d="M82.21,11C97.88,23.65,94.44,40.47,94,42.48L72.4,41.73a26.43,26.43,0,0,0,1.12-2.95A27.2,27.2,0,0,0,74.36,35c1.47-10.59-6.29-21.83-6.29-21.83C62.41,5,55.37,1.15,55.53,1s4.32,2.48,8.06,7a33.11,33.11,0,0,1,3.59,5.22A34.83,34.83,0,0,0,53.75,20a33,33,0,0,0-4,4.07A38.82,38.82,0,0,0,44.92,32a36.79,36.79,0,0,0-3.63,12.33L34.49,46a145.66,145.66,0,0,1,5.19-15.41A160,160,0,0,1,55.71.53C60.15,1.08,72.3,3,82.21,11Z"/><path class="cls-2" d="M187.18,202.13c17.23-5.44,43.48-16.75,65.43-40.78,9.87-10.81,22.54-25,26.36-47.21,1.42-8.23,6.73-39-16.56-58.54-16.08-13.46-47.15-22.66-62.69-9.49C188.19,55.88,187.55,76,197,87.25c9.86,11.7,24.69,6.66,32.06,17.45,8.82,12.94-4.09,34.63-10,44.69-10.64,18.2-25.39,29.88-37.31,37.07"/><path class="cls-3" d="M38.52,140.3a116.38,116.38,0,0,0-15.23,40.93,111.28,111.28,0,0,0,4.48,54.87,102.94,102.94,0,0,0,5.37,12.19c31.13,3,56.27,5.81,73.44,7.84,26.81,3.16,37.18,1,53.74,3.48,2.91.43,36.56,4.9,59.1-19.16a61,61,0,0,0,16.13-39.19c.65-23.55-13.07-39.32-17-43.54-3-3.15-17-18.31-38.51-20a50.74,50.74,0,0,0-8.06,0"/><path class="cls-4" d="M126.28,170.78a108,108,0,0,1-1.79,40.93,109.79,109.79,0,0,1-18.8,40.06"/><path class="cls-1" d="M123.46,61A88.58,88.58,0,0,1,140,48.49,91.63,91.63,0,0,1,175.2,36.76c.57,4.5,1.78,19-7.93,32.21A44.14,44.14,0,0,1,156.2,79.49Z"/><path class="cls-2" d="M172.75,70a70.54,70.54,0,0,1-13.09,15.31l-6.37-5.22a35.49,35.49,0,0,0,4.88-5.27c9.45-12.55,7.42-27.71,6.37-33.25,15.38-4.36,18.64-5.38,18.61-5.47s-16.68,2.85-34.24,10.68a152.3,152.3,0,0,0-26,14.83l-6-1.55a89.12,89.12,0,0,1,14.94-13.47c7.92-5.66,19.09-13.63,34.09-13.8a44.75,44.75,0,0,1,17.24,3.31A68.44,68.44,0,0,1,172.75,70Z"/><path class="cls-3" d="M144.64,62c-21.4-18.19-44.54-22.08-53.58-23.48-12.13-1.88-29.69-4.43-49.12,4-4.76,2.06-29.87,12.91-38.61,40-6.49,20.15-.15,37.5,2.52,43.67,7.38,17,20.27,26.05,27.4,30.91,32.15,21.91,93.4,35.44,124.23,3.8,13.48-13.84,19.6-34.72,16.68-53.57C170.55,84,154.47,70.37,144.64,62Z"/><path class="cls-1" d="M62.13,119.75c-2.4-1-2.93-3-4.05-2.63-.73.21-1.06,1.2-1.21,1.65-.83,2.48,1.11,4.75,1.43,5.12,2.68,1.09,5.37,1,6.83-.44.64-.63,1.37-1.8,1-2.57S64.19,120.61,62.13,119.75Z"/><path class="cls-4" d="M46.6,129.49A13.68,13.68,0,0,0,50.32,133c5.38,3.57,12.86,4.73,14.8,5"/><path class="cls-2" d="M27.73,257c-2.81-3.74.22-10.27,3.42-13.65,8-8.51,27.05-8.78,34.28,0,4.13,5,5.26,13.88,1.3,16.28-2.72,1.65-7.54.08-12-3.12a7.08,7.08,0,0,1-2.6,2.14,7.68,7.68,0,0,1-7.32-.49,6.87,6.87,0,0,1-2.27-2.46,10.11,10.11,0,0,1-7.64,4.12C34.62,259.83,29.91,259.93,27.73,257Z"/><path class="cls-2" d="M106.58,257c1.19-3.79-1.61-7.33-2.69-8.7-6.38-8.06-23.22-12-30.78-4.37-4.37,4.44-6.58,13.09-3.34,16,2.21,2,6.76,1,11.21-1.56a6.56,6.56,0,0,0,2,2.45,6.43,6.43,0,0,0,6.63.44A6.65,6.65,0,0,0,92,259.07a8.61,8.61,0,0,0,8.28,3.15A8.07,8.07,0,0,0,106.58,257Z"/><path class="cls-4" d="M166.59,177.75c-4.15.41-18.52,2.32-28.66,13.93-14.36,16.45-8.11,38.47-7.17,41.8a48.79,48.79,0,0,0,5.38,12.2"/><path class="cls-2" d="M161.21,256.13c-.29-2.06-2.41-5.36-20.6-9.58-15.58-3.62-23.47-5.36-28.09-1.74-4.87,3.81-6.93,11.92-4.15,14.8,1.47,1.52,4.66,1.95,7.17.87a7.27,7.27,0,0,0,3.58-3.48,7.85,7.85,0,0,0,7.16,4.35,8.13,8.13,0,0,0,6.27-3.48,29.19,29.19,0,0,0,3.59,1.74c9.59,3.86,19.14,1.65,24.18,0A5.31,5.31,0,0,0,161.21,256.13Z"/><path class="cls-4" d="M70.76,199.52A85.75,85.75,0,0,0,69,242.19"/><path class="cls-5" d="M77.64,81.38c-9.06,6.59-15,20.33-10.33,32.13C71.84,125,84,130.13,86.77,131.32c11.54,4.85,27.67,5.05,37.66-5.17,7-7.14,9.76-18.06,6.93-27.1C125.39,80,94.5,69.14,77.64,81.38Z"/><path class="cls-5" d="M17.65,77.05c3.53-9.3,13.18-17.93,25.61-17.86a26.88,26.88,0,0,1,24.64,17,27.15,27.15,0,0,1-4,26.05l-.12.14a28.52,28.52,0,0,1-18.74,9.67c-12,1.06-24-7.11-27.75-18.22A25.29,25.29,0,0,1,17.65,77.05Z"/><path class="cls-6" d="M54.54,95.48a3.07,3.07,0,0,1,2.31,1.61c1.13,2.33-.53,6.89-3.19,7.18-1.69.19-3.57-1.39-3.9-3.37C49.3,98,52.16,95.18,54.54,95.48Z"/><path class="cls-6" d="M78.11,104.19c1.22,1.31,1,4.24-.11,6s-3.76,3-5.32,1.55c-1.31-1.21-1.38-3.71-.71-5.35C73.08,103.72,76.58,102.53,78.11,104.19Z"/><path class="cls-2" d="M45.17,140.48c-.62,1,1.21,3.08,2.06,3.87,1.22,1.13,4.07,3,6,1.86a3.18,3.18,0,0,0,1.47-3.3C53.93,139.81,46.19,138.78,45.17,140.48Z"/><path class="cls-7" d="M8,193.2c-9-14.59-4.23-35.73,5.66-49.3,8.36-11.45,20.73-18,30.52-17.64,1.85.08,5.7.29,7.89,3,2.58,3.14,2,8.67-.58,11.9-3.25,4-7.74,2-15.4,5.24-2.34,1-8.53,3.55-12.13,9.29-5.22,8.29-4,21.47,2.42,29.21,2.87,3.46,5.4,4.19,5.72,7.06.56,5-6.17,11.2-12.69,10.54C13.35,201.83,9.4,195.44,8,193.2Z"/><path class="cls-7" d="M109.43,166.89c-11.9,7.49-29.85,4.05-41.63-3.6-9.94-6.45-16-16.19-16-24,0-1.47,0-4.55,2.17-6.35,2.54-2.12,7.21-1.78,10,.24,3.49,2.52,2,6.13,5,12.19.91,1.85,3.32,6.74,8.27,9.51,7.17,4,18.19,2.76,24.44-2.49,2.8-2.35,3.31-4.39,5.71-4.7,4.18-.53,9.65,4.72,9.34,9.93C116.47,162.46,111.26,165.74,109.43,166.89Z"/><path class="cls-7" d="M167.62,182.13c2.16-14.51-8.14-29.43-19.87-36.68-9.9-6.12-21.28-7.06-28.51-3.4-1.36.69-4.19,2.17-5,5-.94,3.33,1.23,7.48,4.21,9.11,3.7,2,6.45-1,13.22-1.14,2.07,0,7.53-.13,12.06,3.13,6.54,4.71,9.78,15.46,7.42,23.7-1,3.7-2.73,5.13-2,7.49,1.16,4.11,8.18,6.67,12.86,3.92C166.34,190.71,167.28,184.36,167.62,182.13Z"/><path class="cls-7" d="M243.74,262.25c2.17-14.52-8.14-29.44-19.87-36.69-9.9-6.11-21.28-7.05-28.5-3.39-1.37.69-4.2,2.17-5,5-.94,3.33,1.23,7.48,4.21,9.11,3.71,2,6.46-1,13.23-1.15,2.06,0,7.52-.12,12.05,3.14,6.54,4.71,9.78,15.46,7.43,23.7-1.06,3.7-2.73,5.13-2.06,7.49,1.17,4.11,8.18,6.66,12.87,3.92C242.46,270.83,243.41,264.48,243.74,262.25Z"/><path class="cls-7" d="M144.09,205.29c-1.9,12.72,7.17,25.81,17.48,32.17,8.7,5.37,18.7,6.2,25.05,3,1.19-.6,3.68-1.9,4.38-4.38.82-2.93-1.08-6.56-3.7-8-3.26-1.78-5.68.9-11.63,1-1.81,0-6.61.11-10.58-2.75-5.76-4.14-8.61-13.56-6.54-20.79.92-3.24,2.39-4.49,1.8-6.57-1-3.6-7.2-5.84-11.31-3.44C145.21,197.76,144.38,203.33,144.09,205.29Z"/><path class="cls-3" d="M34.56,117.58c1.21,8.4,6.27,14.83,12.67,16.18a13.81,13.81,0,0,0,7.36-.58,17.75,17.75,0,0,0,6.19,6.3c8.38,5,18,.88,19,.42"/><path class="cls-8" d="M57.83,124.87c-.45.76-.89,1.57-1.33,2.44-.57,1.15-1.06,2.25-1.47,3.29"/><path class="cls-9" d="M229.48,273.71a22.57,22.57,0,0,1,1.59,2.45c.8,1.43,1.19,2.16.89,2.61s-1.91.62-2.82,0c-.73-.49-.92-1.08-1.52-1.25s-.86.25-1.5,0a1.29,1.29,0,0,1-.43-2.24c.4-.42.85-.47,1.66-.72A13.82,13.82,0,0,0,229.48,273.71Z"/><path class="cls-9" d="M27.81,200.36l0,0c0,.12,1.82-.09,3.58,0,.87.05,3.46.19,3.59.87s-1.39,1.53-2.76,1.89c-.86.23-1.43.16-1.87.67s-.27.85-.76,1.25a1.27,1.27,0,0,1-1.22.3c-.18-.09-.29-.26-.56-1.49-.16-.73-.24-1.1-.26-1.31A5.58,5.58,0,0,1,27.81,200.36Z"/></g></g></svg>