<svg xmlns="http://www.w3.org/2000/svg" width="36.04" height="50.11" viewBox="0 0 36.04 50.11">
  <defs>
    <style type="text/css">
      .a {
        fill: #ccc;
        stroke: #000;
        stroke-miterlimit: 10;
      }
    </style>
  </defs>
  <title>Cat_2D_tile</title>
  <path class="a" d="M26.11,47.83a16.11,16.11,0,0,1-2-8c0-.89.17-3.91,3-9,4-7.25,6.77-6.66,8-11,1.41-5-.82-10.57-4-14a16,16,0,0,0-6-4c-.45-.18-10.2-3.92-18,2a16.41,16.41,0,0,0-6,9c-.5,2.06-1.46,6.07,1,9,2.08,2.48,6.32,3.83,9,2,2.17-1.49,3-4.91,2-6s-3.38.47-5-1a3.52,3.52,0,0,1-1-2,5.42,5.42,0,0,1,1-4c2-3,6.92-4.3,11-3a10.38,10.38,0,0,1,6,5,9.25,9.25,0,0,1,1,6c-.65,3.15-2.89,3.91-6,8a27.37,27.37,0,0,0-4,7c-1.93,5.9,1.46,12.28,4,16"/>
</svg>
