<svg xmlns="http://www.w3.org/2000/svg" width="23.07" height="13.52" viewBox="0 0 23.07 13.52">
  <defs>
    <style type="text/css">
      .a {
        fill: #ccc;
        stroke: #000;
        stroke-miterlimit: 10;
      }
    </style>
  </defs>
  <title>Cat_2D_paw</title>
  <path class="a" d="M1.22,11.79C-.37,9.94,1,6.42,2.49,4.54,6.33-.19,16.17-1,20.23,3.33c2.32,2.47,3.23,7.06,1.27,8.46-1.35,1-3.91.3-6.34-1.21a3.7,3.7,0,0,1-1.27,1.21,4,4,0,0,1-3.8,0,3.7,3.7,0,0,1-1.27-1.21A5.21,5.21,0,0,1,5,13C4.89,13,2.45,13.23,1.22,11.79Z"/>
</svg>
