<svg xmlns="http://www.w3.org/2000/svg" width="83.06" height="63.33" viewBox="0 0 83.06 63.33">
  <defs>
    <style type="text/css">
      .a {
        fill: #ccc;
      }

      .a, .b, .c, .d, .e {
        stroke: #000;
        stroke-miterlimit: 10;
      }

      .b {
        fill: #f5c7c7;
      }

      .b, .e {
        stroke-width: 0.5px;
      }

      .c {
        fill: #e6e6e6;
      }

      .d {
        fill: #fff;
      }
    </style>
  </defs>
  <title>Cat_2D_body</title>
  <g>
    <path class="a" d="M5.48,32.08a60.62,60.62,0,0,1-3-10c-1.54-7.35-.39-8.63,0-9,1.69-1.57,4.94-.61,7,0a19.31,19.31,0,0,1,9,6l-4,3a12.67,12.67,0,0,0-5-4,12.73,12.73,0,0,0-4-1,47,47,0,0,0,1,5,44.77,44.77,0,0,0,2,6Z"/>
    <path class="b" d="M8.48,28.08a26.68,26.68,0,0,1-3-11,9.52,9.52,0,0,1,5,1,9.43,9.43,0,0,1,4,4Z"/>
    <path class="a" d="M67.54,18.6A61.22,61.22,0,0,0,65.22,8.43C62.94,1.28,61.33.71,60.82.58,58.6,0,56.29,2.43,54.82,4A18.94,18.94,0,0,0,50,13.51l4.9.69a12.46,12.46,0,0,1,2.33-5.89A11.91,11.91,0,0,1,60.2,5.52a45.86,45.86,0,0,1,1.59,4.84A45.11,45.11,0,0,1,63,16.55Z"/>
    <path class="b" d="M63,15.55a26.93,26.93,0,0,0-2.81-11,9.11,9.11,0,0,0-3.8,3.27,9.34,9.34,0,0,0-1.47,5.41Z"/>
    <path class="c" d="M78.48,63.08a46.15,46.15,0,0,0,2.69-8.6c.87-4.19,3.72-16.81-2.66-26.75-6.19-9.63-16.34-12.2-22-13.65-14.69-3.72-33.94-.93-46,12C7.79,29,.67,36.6.5,48a29.93,29.93,0,0,0,4,15.07"/>
    <path class="d" d="M56.42,30.4A13.12,13.12,0,0,0,44,35.82c-3.59,5.09-3.4,12.67.82,16.88s10.28,3,11.41,2.76c4.31-.84,10.4-4.13,11.5-10.24C68.92,38.35,63.2,31.42,56.42,30.4Z"/>
    <path class="d" d="M19.48,39.08C23.31,34,30.73,32.7,35.65,35.79c4.47,2.82,5.7,8.29,5.2,12.27-.17,1.42-1,6.32-5.37,9a12.31,12.31,0,0,1-15-2A12.46,12.46,0,0,1,19.48,39.08Z"/>
    <path class="b" d="M43,56.66c-2,.17-4.42.37-4.65,1.33-.26,1.13,2.44,3.5,5.17,3.21s4.74-3,4.29-4C47.45,56.28,45.1,56.48,43,56.66Z"/>
    <path class="e" d="M36,49.71a1.91,1.91,0,0,1,2.46,1.37,1.75,1.75,0,0,1-1,2,1.77,1.77,0,0,1-2.06-.9A1.86,1.86,0,0,1,36,49.71Z"/>
    <path class="e" d="M47,47.53A1.91,1.91,0,0,1,48.39,50a1.63,1.63,0,0,1-3.17-.7A1.85,1.85,0,0,1,47,47.53Z"/>
  </g>
</svg>
