<svg xmlns="http://www.w3.org/2000/svg" width="90.34" height="89.69" viewBox="0 0 90.34 89.69">
  <defs>
    <style type="text/css">
      .a {
        fill: #e6e6e6;
      }

      .a, .b, .c, .d, .e, .f {
        stroke: #000;
        stroke-miterlimit: 10;
      }

      .b {
        fill: #ccc;
      }

      .c {
        fill: #f5c7c7;
      }

      .c, .d, .e {
        stroke-width: 0.5px;
      }

      .e {
        fill: none;
      }

      .f {
        fill: #fff;
      }
    </style>
  </defs>
  <title>Cat_6D_body</title>
  <g>
    <path class="a" d="M15.34,57.19a50.58,50.58,0,0,0-11,32h68a55.72,55.72,0,0,0-16-33Z"/>
    <path class="b" d="M17.74,17.05c.22-2.9.57-5.93,1.08-9,.14-.86.29-1.71.45-2.54l6.93-.53a14.87,14.87,0,0,0-4.68,4.41,13.54,13.54,0,0,0-2.29,7.46Z"/>
    <path class="c" d="M19.38,16a14,14,0,0,1,1-5.93,8.27,8.27,0,0,1,1.4-2.38,8.72,8.72,0,0,1,3.93-2.46,10.08,10.08,0,0,1,4,3.35,8.36,8.36,0,0,1,1.46,5.21Z"/>
    <path class="b" d="M21.11.54A13.64,13.64,0,0,1,29.5,2.88a17.25,17.25,0,0,1,5.74,6.25,20.86,20.86,0,0,1,2.1,4.74l-5.84-.15A27.6,27.6,0,0,0,28.6,8a30.77,30.77,0,0,0-3.19-4.06l1.59,2a12.63,12.63,0,0,0-5.83-.15C18.29,6.44,16.92,8,16,7.5c-.61-.32-1-1.47-.06-5.25A11.42,11.42,0,0,1,21.11.54Z"/>
    <path class="b" d="M77.38,47.88q3.5-2.72,7-5.93c.65-.59,1.28-1.18,1.9-1.77l-3.18-5.5A29.55,29.55,0,0,1,80.33,39a30.88,30.88,0,0,1-4.11,4.31Z"/>
    <path class="c" d="M77,45.6a13.64,13.64,0,0,0,6.12-4.26,12.48,12.48,0,0,0,1.39-2.18l-1.34-4a10,10,0,0,0-4.89-1.09,9.2,9.2,0,0,0-5.13,1.84Q75.05,40.77,77,45.6Z"/>
    <path class="b" d="M89.83,41.52a10.15,10.15,0,0,0-1-4.91,12.24,12.24,0,0,0-5.72-5.56c-3-1.36-5.82-1-8.25-.78a22.85,22.85,0,0,0-5.08,1.1L73,35.67a29.57,29.57,0,0,1,6.35-1.07,30.66,30.66,0,0,1,5.08.11l-2.54-.06A14.82,14.82,0,0,1,85.05,39c1.06,2.21,1,3.92,1.91,4.27C87.45,43.4,88.3,43.26,89.83,41.52Z"/>
    <path class="a" d="M77.22,61.56C81.06,48.1,73.61,35.76,72,33.08c-.57-.92-1-1.6-1.32-2C69.43,29.27,56.47,10.88,35,12.14c-2.34.14-15.9,1.17-25.7,12.3C7,27-.87,35.9.71,47.37c.85,6.26,4.15,10.49,6.19,13.11,5.3,6.8,11.41,9.5,21.69,14,16.25,7.17,25.23,6.51,28,6.21a21.29,21.29,0,0,0,5.95-1.27C73.06,75.41,76.69,63.41,77.22,61.56Z"/>
    <path class="c" d="M36,54.84c-4.22-1.92-5-2.55-5.36-2.19-.81.74.51,5,3.61,6.22,2.81,1.11,6.34-.56,6.34-1.62C40.6,56.71,39.71,56.53,36,54.84Z"/>
    <path class="d" d="M32.15,66.38c-1.21-.25-2.78-1.27-2.6-2.25s1.85-1.78,3-1.18,1.46,2.78.78,3.35A1.51,1.51,0,0,1,32.15,66.38Z"/>
    <path class="e" d="M34.25,58.87c-.17.58-.38,1.21-.63,1.87a22,22,0,0,1-1,2.21"/>
    <path class="f" d="M64,37.39a14.42,14.42,0,0,0-14.7-2.45C43,37.48,38.75,44.56,40.17,51s7.74,8.88,8.91,9.34c4.49,1.8,12.05,2.41,16.65-2.55C70.91,52.16,69.7,42.37,64,37.39Z"/>
    <path class="f" d="M24.8,23.34C31.37,20.9,39,24.18,41.67,30c2.48,5.26.4,11-2.4,14.38-1,1.2-4.66,5.2-10.28,5.09A13.48,13.48,0,0,1,24.8,23.34Z"/>
    <path class="d" d="M46,43a1.86,1.86,0,0,0-2.6.58,1.54,1.54,0,0,0,.54,1.95A1.76,1.76,0,0,0,46,45.27,1.58,1.58,0,0,0,46,43Z"/>
    <path class="d" d="M33.85,37.44a1.64,1.64,0,0,0-1.78,1.79,1.76,1.76,0,0,0,1.56,1.46,1.54,1.54,0,0,0,1.56-1.29A1.78,1.78,0,0,0,33.85,37.44Z"/>
  </g>
</svg>
