<svg xmlns="http://www.w3.org/2000/svg" width="24.86" height="14.76" viewBox="0 0 24.86 14.76">
  <defs>
    <style type="text/css">
      .a {
        fill: #ccc;
        stroke: #000;
        stroke-miterlimit: 10;
      }
    </style>
  </defs>
  <title>Cat_6D_tail</title>
  <path class="a" d="M2.47,11.57C8,8.12,10.62,8.34,12,9.19s1.25,2.2,3,3.58c2,1.6,5.72,2.13,7.8.49,2.54-2,1.57-6.36-.4-8.89A10.76,10.76,0,0,0,15.82.75a12.75,12.75,0,0,0-7.9,1c-.12.05-.29.12-.49.22A14.41,14.41,0,0,0,2.79,5.4,13.7,13.7,0,0,0,.46,9"/>
</svg>
