<svg xmlns="http://www.w3.org/2000/svg" viewBox="0 0 50.43 39.98"><defs><style type="text/css">.cls-1{fill:gray;}.cls-1,.cls-2,.cls-3,.cls-4,.cls-5,.cls-6{stroke:#000;stroke-miterlimit:10;stroke-width:0.5px;}.cls-2{fill:#f5c7c7;}.cls-3{fill:#404040;}.cls-4{fill:#fff;}.cls-6{fill:none;}</style></defs><title>Ресурс 42</title><g id="Слой_2" data-name="Слой 2"><g id="ИКОНКИ"><path class="cls-1" d="M5.18,12.56a32,32,0,0,1-.33-5.92C5,2.37,5.91,1.82,6.2,1.67c1.26-.64,3.1.33,4.26,1A11.35,11.35,0,0,1,15,7.15L12.15,8.26A7.26,7.26,0,0,0,9.71,5.38a8.42,8.42,0,0,0-2.28-1.1,21.93,21.93,0,0,0-.14,2.9,22.14,22.14,0,0,0,.32,3.58Z"/><path class="cls-2" d="M7.61,10.76a13.31,13.31,0,0,1-.47-3,13.4,13.4,0,0,1,.29-3.45,6.24,6.24,0,0,1,2.89,1.23,5.31,5.31,0,0,1,1.83,2.75Z"/><path class="cls-1" d="M42.86,10.63A30,30,0,0,0,42.77,5C42.32,1,41.46.53,41.17.4,40-.14,38.31.87,37.26,1.51A10.44,10.44,0,0,0,33.3,6l2.77.91a6.57,6.57,0,0,1,2.08-2.85,7.18,7.18,0,0,1,2.06-1.15,20.92,20.92,0,0,1,.32,2.73,22,22,0,0,1-.05,3.39Z"/><path class="cls-2" d="M40.48,9.05a12.8,12.8,0,0,0,.23-2.88,13.47,13.47,0,0,0-.5-3.24,5.65,5.65,0,0,0-2.62,1.31,4.81,4.81,0,0,0-1.52,2.69Z"/><path class="cls-3" d="M49.26,17.64C46.74,11,39.8,8.23,37.6,7.36,24.47,2.2,4.89,7.26,1,17.84-.65,22.17.63,27.65,3.32,31.46c2.89,4.09,7,5.43,11.07,6.77C15.05,38.45,28,42.5,41,36.28c3.82-1.83,5.25-3.43,5.89-4.19A14.69,14.69,0,0,0,49.26,17.64Z"/><path class="cls-4" d="M33.08,12.82a6.36,6.36,0,0,0-5.64,1.57,5.44,5.44,0,0,0-.58,7.23,6.38,6.38,0,0,0,5.07,2.44,6,6,0,0,0,5.22-3.38A6,6,0,0,0,33.08,12.82Z"/><path class="cls-4" d="M14.23,13.58a6.87,6.87,0,0,1,6.41.14c2.51,1.37,4.06,4.43,2.86,7.07-1,2.19-3.52,3.27-5.7,3.35a6.63,6.63,0,0,1-5.92-2.84A5.72,5.72,0,0,1,14.23,13.58Z"/><path class="cls-2" d="M24.91,25.45c-1.5-.06-2.15-.6-2.37-.36-.39.42.82,2.88,2.64,2.83S28,25.65,27.63,25.2C27.38,24.91,26.58,25.52,24.91,25.45Z"/><path class="cls-5" d="M20.28,16.28a1.1,1.1,0,0,1,1,.92,1.24,1.24,0,0,1-1.2,1.34,1.15,1.15,0,0,1-.81-1.34A1.12,1.12,0,0,1,20.28,16.28Z"/><path class="cls-5" d="M30.1,16a1,1,0,0,0-.71,1.21,1.11,1.11,0,0,0,1.34.65.91.91,0,0,0,.63-.7A1.14,1.14,0,0,0,30.1,16Z"/><path class="cls-6" d="M20.6,29.9A9,9,0,0,0,25.09,31a10,10,0,0,0,1.19-.11,10.49,10.49,0,0,0,3.33-1.11"/><path class="cls-6" d="M25.18,27.92a3.22,3.22,0,0,1,.32.94A3.31,3.31,0,0,1,25.1,31"/></g></g></svg>