<svg xmlns="http://www.w3.org/2000/svg" width="86.27" height="79.14" viewBox="0 0 86.27 79.14">
  <defs>
    <style type="text/css">
      .a {
        fill: #ccc;
      }

      .a, .b, .c, .d, .e, .f {
        stroke: #000;
        stroke-miterlimit: 10;
      }

      .b {
        fill: #e6e6e6;
      }

      .c {
        fill: #f5c7c7;
      }

      .c, .d, .f {
        stroke-width: 0.5px;
      }

      .d {
        fill: none;
      }

      .e {
        fill: #fff;
      }
    </style>
  </defs>
  <title>Cat_5D_body</title>
  <g>
    <path class="a" d="M17.08,72c-2.9-3.57-4.6-7-3.55-9.35.92-2.09,3.09-1.62,4.89-4,2.09-2.76,2.42-7.83-.26-10.82-3.27-3.65-9.56-2.54-13,0-3.69,2.75-4.27,7.2-4.5,9a18.16,18.16,0,0,0,2.49,11A24.37,24.37,0,0,0,14.7,78.64"/>
    <path class="b" d="M28.7,46.64a103,103,0,0,0-14,32h71a55.72,55.72,0,0,0-16-33Z"/>
    <path class="b" d="M78.48,26.25c-1.76-11.36-11.57-18-13.72-19.41C64,6.35,63.44,6,63.09,5.78,61.57,4.87,45.58-4.38,30,4c-1.69.9-11.45,6.33-14.92,18-.8,2.68-3.62,12,1.5,20a21.87,21.87,0,0,0,9.12,7.64c6.29,3.25,11.78,3.15,21,3,14.57-.25,21-3.83,23-5a17.69,17.69,0,0,0,4-3C80.15,38,78.72,27.81,78.48,26.25Z"/>
    <path class="c" d="M45.45,35.43c-3.8,0-4.58-.2-4.75.21-.35.83,2.1,3.55,4.84,3.39,2.47-.14,4.53-2.59,4.16-3.39C49.52,35.24,48.79,35.41,45.45,35.43Z"/>
    <path class="a" d="M53.78,7.92c-.13-1.56,2.81-4.49,5.68-5.27,7-1.88,13.27,9,12.12,10.61-.35.48-1.44.21-2.35,0-2.61-.63-2.86-2.39-5-3.18-1.55-.57-1.74.2-4.7,0C57.8,9.92,53.92,9.63,53.78,7.92Z"/>
    <path class="a" d="M31.77,6.82c-1.1-2.44-6.29-3.35-9.63-2A7.55,7.55,0,0,0,18.57,8c-2.36,3.63-2.09,8.49-1,8.92s2-3.81,5.91-4.43c2-.32,2.78.66,4.57.17C30.66,11.94,32.7,8.88,31.77,6.82Z"/>
    <path class="d" d="M41.7,42.64h8"/>
    <path class="d" d="M45.54,39c.07.49.13,1,.16,1.61a16.65,16.65,0,0,1,0,2"/>
    <path class="e" d="M40.85,17a9.61,9.61,0,0,1,2.85,3c1.44,2.45,2.19,6.51-.33,9.52s-6.74,3.13-8.13,3.17c-3.35.11-9.4-.92-10.91-5.19-1.2-3.39,1.23-6.67,1.67-7.24l-3,.79a31.08,31.08,0,0,1,4.5-1.18c5.87-1.05,7.8.81,10.76-.78,2.46-1.32,3.58-3.93,3.68-3.87A10.65,10.65,0,0,1,40.85,17Z"/>
    <path class="e" d="M65.08,22.29a7.66,7.66,0,0,0-1.76-4.78c.92-.16,1.51-.29,1.5-.39,0-.26-4.08.43-7.63-.63a12.9,12.9,0,0,1-6.66-4.95L51.61,13a14.23,14.23,0,0,0-3.5,3.28c-.86,1.13-3.85,5-2.32,9.42a9.05,9.05,0,0,0,5.51,5.62c4.47,1.52,9.18-1,11.48-3.56A8.24,8.24,0,0,0,65.08,22.29Z"/>
    <path class="f" d="M51.82,26.18a1.52,1.52,0,0,0-1.74,1.32,1.26,1.26,0,0,0,1.07,1.27,1.44,1.44,0,0,0,1.49-.93A1.29,1.29,0,0,0,51.82,26.18Z"/>
    <path class="f" d="M29.86,27.2a1.34,1.34,0,0,0-.71,1.94,1.46,1.46,0,0,0,1.67.56,1.27,1.27,0,0,0,.72-1.5A1.47,1.47,0,0,0,29.86,27.2Z"/>
  </g>
</svg>
