<svg xmlns="http://www.w3.org/2000/svg" width="18.42" height="11.13" viewBox="0 0 18.42 11.13">
  <defs>
    <style type="text/css">
      .a {
        fill: #ccc;
        stroke: #000;
        stroke-miterlimit: 10;
      }
    </style>
  </defs>
  <title>Cat_5D_paw_left</title>
  <path class="a" d="M1,9.24c-1.15-1.61.1-4.45,1.41-5.92,3.29-3.69,11.09-3.82,14,0,1.68,2.16,2.14,6,.51,7.05-1.11.71-3.08,0-4.92-1.34a3,3,0,0,1-1.06.93,3,3,0,0,1-3-.21A2.85,2.85,0,0,1,7,8.65a4.11,4.11,0,0,1-3.13,1.79A3.72,3.72,0,0,1,1,9.24Z"/>
</svg>
