<svg xmlns="http://www.w3.org/2000/svg" width="13.01" height="13.37" viewBox="0 0 13.01 13.37">
  <defs>
    <style>
      .a {
        fill: #fff;
        stroke: #fff;
        stroke-miterlimit: 10;
        stroke-width: 0.2px;
      }
    </style>
  </defs>
  <title>Paw_dark</title>
  <g>
    <path class="a" d="M9.94,6.44c-1.07-1.12-4-.87-4.75.73-.82,1.77,1.43,4.24,2.16,4,.45-.12.13-1.21,1-2s1.65-.37,2-1A1.69,1.69,0,0,0,9.94,6.44Z"/>
    <path class="a" d="M8.35,2.21c.16-1.09-2.26-2.52-3-2a2.14,2.14,0,0,0,.7,3.09A1.85,1.85,0,0,0,8.35,2.21Z"/>
    <path class="a" d="M12.91,4.71c0-.64-1-2.07-1.72-1.73s-.67,1.61-.36,2.16C11.29,6,12.94,5.58,12.91,4.71Z"/>
    <path class="a" d="M4.35,5.21c-.28-1.29-3.24-1.94-4-1s0,3.17,1.5,3.42A2.41,2.41,0,0,0,4.35,5.21Z"/>
    <path class="a" d="M4.35,11.21c-.29-1.26-2.48-1.59-3-1s.46,3.08,1.58,3.06A1.82,1.82,0,0,0,4.35,11.21Z"/>
  </g>
</svg>
