<svg width="36" height="36" viewBox="0 0 36 36" fill="none" xmlns="http://www.w3.org/2000/svg">
<path d="M29.25 18C29.25 20.9837 28.0647 23.8452 25.955 25.955C23.8452 28.0647 20.9837 29.25 18 29.25C15.0163 29.25 12.1548 28.0647 10.045 25.955C7.93526 23.8452 6.75 20.9837 6.75 18C6.75 15.0163 7.93526 12.1548 10.045 10.045C12.1548 7.93526 15.0163 6.75 18 6.75C20.9837 6.75 23.8452 7.93526 25.955 10.045C28.0647 12.1548 29.25 15.0163 29.25 18ZM18.3285 22.1715C18.4331 22.2761 18.5573 22.3591 18.6939 22.4157C18.8306 22.4723 18.9771 22.5014 19.125 22.5014C19.2729 22.5014 19.4194 22.4723 19.5561 22.4157C19.6927 22.3591 19.8169 22.2761 19.9215 22.1715C20.0261 22.0669 20.1091 21.9427 20.1657 21.8061C20.2223 21.6694 20.2514 21.5229 20.2514 21.375C20.2514 21.2271 20.2223 21.0806 20.1657 20.9439C20.1091 20.8073 20.0261 20.6831 19.9215 20.5785C19.037 19.5306 18.5044 18.9553 17.3407 18C18.4681 17.1135 19.0268 16.5414 19.9215 15.4215C20.0261 15.3169 20.1091 15.1927 20.1657 15.0561C20.2223 14.9194 20.2514 14.7729 20.2514 14.625C20.2514 14.4771 20.2223 14.3306 20.1657 14.1939C20.1091 14.0573 20.0261 13.9331 19.9215 13.8285C19.8169 13.7239 19.6927 13.6409 19.5561 13.5843C19.4194 13.5277 19.2729 13.4986 19.125 13.4986C18.9771 13.4986 18.8306 13.5277 18.6939 13.5843C18.5573 13.6409 18.4331 13.7239 18.3285 13.8285C16.9258 15.0101 16.1815 15.7385 14.9535 17.2035C14.8487 17.308 14.7656 17.4321 14.7089 17.5688C14.6522 17.7055 14.623 17.852 14.623 18C14.623 18.148 14.6522 18.2945 14.7089 18.4312C14.7656 18.5679 14.8487 18.692 14.9535 18.7965C16.1755 20.3103 16.9323 21.0165 18.3285 22.1715Z" fill="#0E1950"/>
</svg>
