<svg width="28" height="24" viewBox="0 0 28 24" fill="none" xmlns="http://www.w3.org/2000/svg">
<path d="M6.328 19.064C5.51733 19.064 4.78667 19.0053 4.136 18.888C3.496 18.7813 2.952 18.568 2.504 18.248C2.056 17.9387 1.71467 17.48 1.48 16.872C1.24533 16.264 1.128 15.4693 1.128 14.488C1.128 13.7733 1.16533 13.032 1.24 12.264C1.31467 11.496 1.40533 10.7547 1.512 10.04C1.62933 9.31467 1.74133 8.66933 1.848 8.104C1.63467 8.136 1.45333 8.168 1.304 8.2L1 5.656C1.52267 5.56 2.12533 5.48 2.808 5.416C3.50133 5.34133 4.232 5.27733 5 5.224C5.77867 5.17067 6.552 5.13333 7.32 5.112C8.088 5.08 8.808 5.064 9.48 5.064C10.0133 5.064 10.4987 5.07467 10.936 5.096C11.384 5.10667 11.752 5.128 12.04 5.16L11.912 7.832C11.624 7.77867 11.2347 7.74133 10.744 7.72C10.2533 7.688 9.704 7.672 9.096 7.672C8.38133 7.672 7.61867 7.688 6.808 7.72C5.99733 7.752 5.224 7.78933 4.488 7.832C4.40267 8.28 4.328 8.73867 4.264 9.208C4.2 9.67733 4.14133 10.1413 4.088 10.6C4.70667 10.5147 5.384 10.4507 6.12 10.408C6.86667 10.3547 7.608 10.3173 8.344 10.296C9.08 10.264 9.74133 10.248 10.328 10.248C10.6693 10.248 10.9733 10.2533 11.24 10.264C11.5067 10.264 11.7253 10.2747 11.896 10.296L11.832 12.92C11.6933 12.9093 11.5013 12.904 11.256 12.904C11.0213 12.8933 10.744 12.888 10.424 12.888C9.96533 12.888 9.45333 12.8987 8.888 12.92C8.32267 12.9307 7.736 12.952 7.128 12.984C6.53067 13.0053 5.94933 13.0373 5.384 13.08C4.81867 13.112 4.30667 13.1547 3.848 13.208C3.80533 13.8053 3.784 14.2853 3.784 14.648C3.784 15.1707 3.85333 15.5547 3.992 15.8C4.13067 16.0453 4.36 16.2053 4.68 16.28C5.01067 16.344 5.44267 16.376 5.976 16.376C6.92533 16.376 7.944 16.296 9.032 16.136C10.1307 15.976 11.2133 15.7253 12.28 15.384L12.456 18.168C11.176 18.52 10.0133 18.7547 8.968 18.872C7.93333 19 7.05333 19.064 6.328 19.064Z" fill="#0E1950"/>
<path d="M14.5659 19.048C14.5659 17.384 14.5872 15.8853 14.6299 14.552C14.6832 13.208 14.7472 11.9867 14.8219 10.888C14.9072 9.77867 14.9979 8.74933 15.0939 7.8C15.2005 6.84 15.3019 5.92267 15.3979 5.048L18.1499 5.16C18.1072 5.49067 18.0592 5.848 18.0059 6.232C18.3685 6.72267 18.7632 7.28267 19.1899 7.912C19.6272 8.54133 20.0699 9.208 20.5179 9.912C20.9765 10.6053 21.4245 11.304 21.8619 12.008C22.2992 12.7013 22.7152 13.368 23.1099 14.008C23.5045 14.6373 23.8512 15.2027 24.1499 15.704C24.2245 14.968 24.2619 13.9333 24.2619 12.6C24.2619 11.9173 24.2512 11.2133 24.2299 10.488C24.2085 9.76267 24.1819 9.06933 24.1499 8.408C24.1179 7.736 24.0752 7.13867 24.0219 6.616C23.9685 6.08267 23.9099 5.66667 23.8459 5.368L26.8539 5C26.8752 5.52267 26.8859 6.21067 26.8859 7.064C26.8965 7.90667 26.9019 8.80267 26.9019 9.752C26.9019 10.5947 26.8965 11.4427 26.8859 12.296C26.8752 13.1387 26.8539 13.9173 26.8219 14.632C26.7899 15.3467 26.7419 15.9387 26.6779 16.408C26.5605 17.3253 26.3259 18.0027 25.9739 18.44C25.6219 18.8773 25.1259 19.096 24.4859 19.096C23.9632 19.096 23.4832 18.9147 23.0459 18.552C22.6192 18.1893 22.1552 17.592 21.6539 16.76C21.3125 16.184 20.9125 15.5227 20.4539 14.776C20.0059 14.0187 19.5365 13.2453 19.0459 12.456C18.5659 11.6667 18.1019 10.9147 17.6539 10.2C17.5685 11.448 17.5045 12.696 17.4619 13.944C17.4192 15.1813 17.3979 16.3013 17.3979 17.304C17.3979 17.624 17.3979 17.9227 17.3979 18.2C17.3979 18.488 17.4032 18.7547 17.4139 19L14.5659 19.048Z" fill="#0E1950"/>
</svg>
