<svg xmlns="http://www.w3.org/2000/svg" width="74.86" height="21.12" viewBox="0 0 74.86 21.12">
  <title>HOKOPMN_KOTNKOB</title>
  <g>
    <path d="M10.68.28l-1.52.77.47,6.49,1,.63-5.9.22.91-.73L6,2.12H4q0,3.09.08,6.18L5,8.88,0,8.53.81,8,1.5.9.12.48Z"/>
    <path d="M20.37,4.59a4,4,0,0,1-.16,1.18,3.18,3.18,0,0,1-.48,1,4.76,4.76,0,0,1-1.86,1.59A5.67,5.67,0,0,1,15.35,9,4.82,4.82,0,0,1,14,8.78a4,4,0,0,1-1.15-.54,4.44,4.44,0,0,1-1.45-1.57,4.19,4.19,0,0,1-.52-2A4.07,4.07,0,0,1,11.21,3a4.31,4.31,0,0,1,.94-1.36A5.34,5.34,0,0,1,13.91.51,5.61,5.61,0,0,1,16,.11a4.47,4.47,0,0,1,1.29.17,3.73,3.73,0,0,1,1.11.51,4.39,4.39,0,0,1,1.43,1.64A4.68,4.68,0,0,1,20.37,4.59Zm-4.45-3a2,2,0,0,0-.26.53,1.88,1.88,0,0,0-.09.57,1.21,1.21,0,0,0,.41.91,1.3,1.3,0,0,0,.95.39,1.53,1.53,0,0,0,.82-.24,1.32,1.32,0,0,0,.56-.59,3.37,3.37,0,0,0-1-1.14A2.7,2.7,0,0,0,15.92,1.54Z"/>
    <path d="M31.48,8.87,26.82,8.3l.93-.61L25,4.9l-.3.06.64,3.11,1,1-5.89-.66,1.05-.78.56-6.37L20.92.57,25.64,0,24.32,1l.39,2.48L26.78,1,26.2.33l4.3.16L27.45,2.94Z"/>
    <path d="M40.21,4.59a4,4,0,0,1-.16,1.18,3.18,3.18,0,0,1-.48,1,4.76,4.76,0,0,1-1.86,1.59A5.67,5.67,0,0,1,35.19,9a4.82,4.82,0,0,1-1.34-.18,4,4,0,0,1-1.15-.54,4.44,4.44,0,0,1-1.45-1.57,4.19,4.19,0,0,1-.52-2A4.07,4.07,0,0,1,31.05,3,4.31,4.31,0,0,1,32,1.67,5.34,5.34,0,0,1,33.75.51a5.61,5.61,0,0,1,2.11-.4,4.47,4.47,0,0,1,1.29.17,3.73,3.73,0,0,1,1.11.51,4.39,4.39,0,0,1,1.43,1.64A4.68,4.68,0,0,1,40.21,4.59Zm-4.45-3a2,2,0,0,0-.26.53,1.88,1.88,0,0,0-.09.57,1.21,1.21,0,0,0,.41.91,1.3,1.3,0,0,0,1,.39,1.53,1.53,0,0,0,.82-.24,1.32,1.32,0,0,0,.56-.59,3.37,3.37,0,0,0-1-1.14A2.7,2.7,0,0,0,35.76,1.54Z"/>
    <path d="M40.35.78l4.5-.52.94-.09a4.29,4.29,0,0,1,.47,0A4,4,0,0,1,49,1a3.23,3.23,0,0,1,1,2.52,3.22,3.22,0,0,1-.9,2.37,3.13,3.13,0,0,1-2.33.91,4.25,4.25,0,0,1-1.5-.25,3,3,0,0,1-1.15-.71L44.51,8l1.92,1.16-5.91-.55L41.35,8l.86-6.41ZM43.88,4a3.46,3.46,0,0,0,1.28-.91A1.78,1.78,0,0,0,45.65,2a.77.77,0,0,0-.12-.48.44.44,0,0,0-.38-.16,1.34,1.34,0,0,0-.35,0,3.12,3.12,0,0,0-.39.18Z"/>
    <path d="M63.69,8.62l-7.06-.25,1.28-.72L59,2.44l-2.61,4.3L54.18,1.93l.9,6.26L57,9.06l-6.59-.59,1-.57L52,1.32,50.72.73,56.26.06,57,3.26,57.71.41l5.36.31-1.62.56.68,6.45Z"/>
    <path d="M69.94,8.85l1-.64.52-5.68-3,6.55-4.92-.7,1.42-.57-.42-6.46-1-.67L70,.07,68.47.92,67,6.42,71.27.36,74.33.6,73,1.13,74,8l.91.39Z"/>
    <path d="M13.74,20.87,9.08,20.3l.93-.61L7.29,16.9,7,17l.64,3.11,1,1.05-5.89-.66,1-.78.56-6.37-1.14-.74L7.9,12,6.58,13,7,15.5,9,13l-.58-.71,4.3.16-3,2.45Z"/>
    <path d="M22.47,16.59a4.38,4.38,0,0,1-.15,1.18,3.67,3.67,0,0,1-.48,1A4.86,4.86,0,0,1,20,20.38a5.67,5.67,0,0,1-2.52.58,4.82,4.82,0,0,1-1.34-.18A4,4,0,0,1,15,20.24a4.44,4.44,0,0,1-1.45-1.57A4.31,4.31,0,0,1,13,16.62,3.9,3.9,0,0,1,13.32,15a4.13,4.13,0,0,1,.93-1.36A5.34,5.34,0,0,1,16,12.51a5.61,5.61,0,0,1,2.11-.4,4.47,4.47,0,0,1,1.29.17,3.73,3.73,0,0,1,1.11.51A4.31,4.31,0,0,1,22,14.43,4.68,4.68,0,0,1,22.47,16.59ZM18,13.54a2,2,0,0,0-.26.53,2.24,2.24,0,0,0-.08.57,1.2,1.2,0,0,0,.4.91,1.3,1.3,0,0,0,1,.39,1.53,1.53,0,0,0,.82-.24,1.32,1.32,0,0,0,.56-.59,3.27,3.27,0,0,0-1-1.14A2.7,2.7,0,0,0,18,13.54Z"/>
    <path d="M62.47,16.59a4.38,4.38,0,0,1-.15,1.18,3.67,3.67,0,0,1-.48,1A4.86,4.86,0,0,1,60,20.38a5.67,5.67,0,0,1-2.52.58,4.82,4.82,0,0,1-1.34-.18A4,4,0,0,1,55,20.24a4.44,4.44,0,0,1-1.45-1.57A4.31,4.31,0,0,1,53,16.62,3.9,3.9,0,0,1,53.32,15a4.13,4.13,0,0,1,.93-1.36A5.34,5.34,0,0,1,56,12.51a5.61,5.61,0,0,1,2.11-.4,4.47,4.47,0,0,1,1.29.17,3.73,3.73,0,0,1,1.11.51A4.31,4.31,0,0,1,62,14.43,4.68,4.68,0,0,1,62.47,16.59ZM58,13.54a2,2,0,0,0-.26.53,2.24,2.24,0,0,0-.08.57,1.2,1.2,0,0,0,.4.91,1.3,1.3,0,0,0,1,.39,1.53,1.53,0,0,0,.82-.24,1.32,1.32,0,0,0,.56-.59,3.27,3.27,0,0,0-1-1.14A2.7,2.7,0,0,0,58,13.54Z"/>
    <path d="M32.35,12l-2.84,5.55-.37-4.23L27.5,19.8,30,21l-5.37-.29,1.73-.54-2-7-.55,5.12-1.15-5.67Z"/>
    <path d="M38.22,20.85l1-.64.53-5.68-3,6.55-4.92-.7,1.42-.57-.42-6.46-1-.67,6.54-.61-1.55.85-1.46,5.5,4.26-6.06,3.06.24-1.32.53L42.23,20l.91.39Z"/>
    <path d="M53.83,20.87l-4.67-.57.94-.61L47.38,16.9l-.31.06.64,3.11,1,1.05-5.9-.66,1.06-.78.55-6.37-1.14-.74L48,12l-1.32,1,.39,2.48L49.13,13l-.58-.71,4.29.16-3,2.45Z"/>
    <path d="M68.64,15.76a3.74,3.74,0,0,1,2,.59,1.62,1.62,0,0,1,.69,1.39,2.11,2.11,0,0,1-1,1.89,7.71,7.71,0,0,1-3.28.89l-5.18.54,2.44-1.14-1.17-7.09-1.68-.77,6,.31a6.66,6.66,0,0,1,2.41.44,1.18,1.18,0,0,1,.68,1.11A1.46,1.46,0,0,1,70.08,15,3.47,3.47,0,0,1,68.64,15.76Zm-3,3.26A7.12,7.12,0,0,0,67,18.07a1.19,1.19,0,0,0,.44-.77.45.45,0,0,0-.18-.37.68.68,0,0,0-.45-.15,2.37,2.37,0,0,0-.42,0,3.32,3.32,0,0,0-.49.14Zm.42-4a2.84,2.84,0,0,0,1.06-.3c.27-.15.41-.32.41-.5a.73.73,0,0,0-.43-.63,2.7,2.7,0,0,0-1.19-.25Z"/>
  </g>
</svg>
