<svg xmlns="http://www.w3.org/2000/svg" width="67.568" height="73.839" viewBox="0 0 67.568 73.839"><defs><style>.a{fill:#000;}</style></defs><g transform="translate(0.028 0)"><path fill="#fff" d="M8.092,36.456A18.431,18.431,0,0,1,11.258,4.19,43.837,43.837,0,0,0,8.092,36.456Z" transform="translate(0 -2.067)"/><path fill="#fff" d="M26.25,1.933c-.562.7-.385,1.616-.111,3.04a11.87,11.87,0,0,0,.952,2.9,5.7,5.7,0,0,0,2.472-2.026c1.049-1.591,1.363-3.972.507-4.56-.228-.162-.633-.111-1.444,0C27.3,1.421,26.615,1.472,26.25,1.933Z" transform="translate(-12.783 -0.585)"/><path fill="#fff" d="M43.469,1.39A31.559,31.559,0,0,0,43.8,4.653a32.423,32.423,0,0,0,.679,3.323A5.335,5.335,0,0,1,40.1,6.532,5.142,5.142,0,0,1,38.909,1.39Z" transform="translate(-19.089 -0.686)"/><path fill="#fff" d="M56.107.908c-1.52.74-.836,3.936-.76,4.281A7.093,7.093,0,0,0,57.6,8.918a3.577,3.577,0,0,1,.117-1.712,9.145,9.145,0,0,1,.674-1.641c.633-1.337,1.17-2.462.826-3.349A2.6,2.6,0,0,0,56.107.908Z" transform="translate(-27.213 -0.371)"/><path fill="#fff" d="M68.9,1.18c-.294.613.086,1.221.583,2.563a21.688,21.688,0,0,1,1.17,4.793A8.146,8.146,0,0,0,73.029,5.77c.3-.583,1.895-3.648.507-5.066C72.355-.507,69.482-.03,68.9,1.18Z" transform="translate(-33.957 0)"/><path fill="#fff" d="M83.17.506l.122,7.3a5.573,5.573,0,0,0,3.992-2.6,5.532,5.532,0,0,0,.3-4.782Z" transform="translate(-41.049 -0.207)"/><path fill="#fff" d="M96.65.89a7.3,7.3,0,0,0,1.013,3.546A7.356,7.356,0,0,0,100.2,6.969a3.546,3.546,0,0,0,1.469-1.657,3.546,3.546,0,0,0,.208-2.026A3.8,3.8,0,0,0,100.2.89Z" transform="translate(-47.7 -0.439)"/><path fill="#fff" d="M113.37,5.47a18.727,18.727,0,0,1,9.008,9.585c2.847,7.4.117,16.521-7,22.6A53.423,53.423,0,0,0,113.37,5.47Z" transform="translate(-55.949 -2.699)"/><path fill="#fff" d="M89.835,113.051A31.952,31.952,0,0,0,101.168,92.67a61.473,61.473,0,0,1-.876,16.83,14.347,14.347,0,0,1-2.118,5.78,5.775,5.775,0,0,1-5.3,2.584,3.665,3.665,0,0,0-3.04-4.727" transform="translate(-44.335 -45.722)"/><path fill="#fff" d="M29.256,111.051c-5.127-5.015-8.572-12.488-9.438-20.381a73.622,73.622,0,0,0,.73,16.83,16.237,16.237,0,0,0,1.763,5.78c1.008,1.677,2.71,2.9,4.413,2.584-.643-2.026.724-4.59,2.533-4.727" transform="translate(-9.699 -44.735)"/><path fill="#fff" d="M41.093,140.849a3.546,3.546,0,0,1,2.533-4.053,3.455,3.455,0,0,1,3.546,1.52,4.939,4.939,0,0,1,3.04-1.52,5.132,5.132,0,0,1,4.053,1.52c1.631-1.576,3.04-2.442,4.053-2.026s.952,2.026,1.91,2.275c1.287.3,2.325-2.4,3.663-2.275.765.066,1.687,1.069,2.533,4.742a116.113,116.113,0,0,0-18.238-.689C45.729,140.438,43.363,140.616,41.093,140.849Z" transform="translate(-20.26 -67.192)"/></g></svg>