<svg width="24" height="24" viewBox="0 0 24 24" fill="none" xmlns="http://www.w3.org/2000/svg">
<path d="M12.0001 3.5C10.3539 3.49993 8.74312 3.97789 7.36337 4.87582C5.98363 5.77375 4.89432 7.05302 4.22775 8.55822C3.56118 10.0634 3.34603 11.7298 3.60845 13.355C3.87087 14.9801 4.59955 16.4941 5.70599 17.713C6.81244 18.9319 8.24902 19.8033 9.84126 20.2214C11.4335 20.6394 13.1129 20.5861 14.6754 20.0679C16.2379 19.5497 17.6163 18.589 18.6432 17.3023C19.6701 16.0157 20.3013 14.4585 20.4601 12.82C20.4692 12.7221 20.4491 12.6238 20.4026 12.5372C20.356 12.4506 20.285 12.3797 20.1983 12.3333C20.1117 12.2869 20.0133 12.267 19.9154 12.2762C19.8176 12.2854 19.7246 12.3232 19.6481 12.385C19.1313 12.8032 18.5363 13.1141 17.898 13.2996C17.2596 13.4851 16.5906 13.5414 15.9302 13.4652C15.2698 13.3891 14.6312 13.182 14.0517 12.8561C13.4723 12.5302 12.9637 12.0921 12.5556 11.5672C12.1476 11.0424 11.8483 10.4415 11.6752 9.79962C11.5022 9.15775 11.4589 8.48782 11.5479 7.82901C11.6368 7.1702 11.8563 6.53575 12.1934 5.96277C12.5305 5.38978 12.9785 4.88978 13.5111 4.492C13.5902 4.43295 13.65 4.35183 13.683 4.25886C13.716 4.1659 13.7208 4.06523 13.6968 3.96955C13.6727 3.87386 13.6209 3.78743 13.5478 3.72114C13.4747 3.65485 13.3837 3.61166 13.2861 3.597C12.8605 3.53239 12.4306 3.49996 12.0001 3.5Z" fill="#0E1950"/>
</svg>
