<svg width="41" height="24" viewBox="0 0 41 24" fill="none" xmlns="http://www.w3.org/2000/svg">
<path d="M6.72 19C5.71733 19 4.80533 18.8133 3.984 18.44C3.16267 18.0773 2.45333 17.5707 1.856 16.92C1.25867 16.2693 0.8 15.528 0.48 14.696C0.16 13.864 0 12.984 0 12.056C0 11.2027 0.128 10.3653 0.384 9.544C0.64 8.712 1.02933 7.96 1.552 7.288C2.07467 6.60533 2.736 6.06133 3.536 5.656C4.34667 5.25067 5.30133 5.048 6.4 5.048C7.54133 5.048 8.53333 5.24533 9.376 5.64C10.2187 6.024 10.912 6.54133 11.456 7.192C12 7.84267 12.4053 8.57867 12.672 9.4C12.9387 10.2213 13.072 11.064 13.072 11.928C13.072 12.9627 12.9173 13.912 12.608 14.776C12.2987 15.64 11.8613 16.392 11.296 17.032C10.7307 17.6613 10.0587 18.1467 9.28 18.488C8.50133 18.8293 7.648 19 6.72 19ZM6.72 16.328C7.36 16.328 7.952 16.1733 8.496 15.864C9.04 15.544 9.47733 15.048 9.808 14.376C10.1387 13.704 10.304 12.8293 10.304 11.752C10.304 10.824 10.1227 10.0613 9.76 9.464C9.39733 8.86667 8.928 8.424 8.352 8.136C7.776 7.848 7.17333 7.704 6.544 7.704C5.82933 7.704 5.22667 7.832 4.736 8.088C4.24533 8.344 3.85067 8.69067 3.552 9.128C3.25333 9.55467 3.04 10.0347 2.912 10.568C2.784 11.1013 2.72 11.6507 2.72 12.216C2.72 12.7707 2.82667 13.2987 3.04 13.8C3.25333 14.2907 3.54133 14.728 3.904 15.112C4.27733 15.4853 4.704 15.784 5.184 16.008C5.664 16.2213 6.176 16.328 6.72 16.328Z" fill="#0E1950"/>
<path d="M14.9759 19.032C14.9652 18.9467 14.9545 18.8347 14.9439 18.696C14.9439 18.5573 14.9439 18.3973 14.9439 18.216C14.9439 17.7787 14.9545 17.2453 14.9759 16.616C15.0079 15.976 15.0452 15.2827 15.0879 14.536C15.1305 13.7787 15.1785 13.016 15.2319 12.248C15.2852 11.4693 15.3385 10.7227 15.3919 10.008C15.4559 9.28267 15.5145 8.63733 15.5679 8.072C15.3972 8.09333 15.2319 8.11467 15.0719 8.136L14.7199 5.416C15.8292 5.26667 17.0079 5.16 18.2559 5.096C19.5145 5.032 20.7412 5 21.9359 5C22.8319 5 23.6905 5.02133 24.5119 5.064C25.3439 5.096 26.0905 5.144 26.7519 5.208L26.5119 7.864C26.0212 7.768 25.4612 7.704 24.8319 7.672C24.2025 7.62933 23.5252 7.608 22.7999 7.608C22.0532 7.608 21.2799 7.62933 20.4799 7.672C19.6905 7.704 18.9225 7.74667 18.1759 7.8C18.1332 8.22667 18.0905 8.66933 18.0479 9.128C18.0159 9.58667 17.9839 10.0613 17.9519 10.552C18.5065 10.4773 19.1199 10.424 19.7919 10.392C20.4745 10.36 21.1519 10.344 21.8239 10.344C22.5919 10.344 23.3119 10.3653 23.9839 10.408C24.6665 10.4507 25.1892 10.5253 25.5519 10.632L25.3599 13.208C24.6132 13.1227 23.9145 13.064 23.2639 13.032C22.6132 12.9893 21.9785 12.968 21.3599 12.968C20.1545 12.968 18.9652 13.048 17.7919 13.208C17.7279 14.328 17.6745 15.3947 17.6319 16.408C17.5999 17.4213 17.5732 18.2747 17.5519 18.968L14.9759 19.032Z" fill="#0E1950"/>
<path d="M28.429 19.032C28.4183 18.9467 28.4077 18.8347 28.397 18.696C28.397 18.5573 28.397 18.3973 28.397 18.216C28.397 17.7787 28.4077 17.2453 28.429 16.616C28.461 15.976 28.4983 15.2827 28.541 14.536C28.5837 13.7787 28.6317 13.016 28.685 12.248C28.7383 11.4693 28.7917 10.7227 28.845 10.008C28.909 9.28267 28.9677 8.63733 29.021 8.072C28.8503 8.09333 28.685 8.11467 28.525 8.136L28.173 5.416C29.2823 5.26667 30.461 5.16 31.709 5.096C32.9677 5.032 34.1943 5 35.389 5C36.285 5 37.1437 5.02133 37.965 5.064C38.797 5.096 39.5437 5.144 40.205 5.208L39.965 7.864C39.4743 7.768 38.9143 7.704 38.285 7.672C37.6557 7.62933 36.9783 7.608 36.253 7.608C35.5063 7.608 34.733 7.62933 33.933 7.672C33.1437 7.704 32.3757 7.74667 31.629 7.8C31.5863 8.22667 31.5437 8.66933 31.501 9.128C31.469 9.58667 31.437 10.0613 31.405 10.552C31.9597 10.4773 32.573 10.424 33.245 10.392C33.9277 10.36 34.605 10.344 35.277 10.344C36.045 10.344 36.765 10.3653 37.437 10.408C38.1197 10.4507 38.6423 10.5253 39.005 10.632L38.813 13.208C38.0663 13.1227 37.3677 13.064 36.717 13.032C36.0663 12.9893 35.4317 12.968 34.813 12.968C33.6077 12.968 32.4183 13.048 31.245 13.208C31.181 14.328 31.1277 15.3947 31.085 16.408C31.053 17.4213 31.0263 18.2747 31.005 18.968L28.429 19.032Z" fill="#0E1950"/>
</svg>
