<svg width="32" height="24" viewBox="0 0 32 24" fill="none" xmlns="http://www.w3.org/2000/svg">
<path d="M8.72 18.952C7.71733 18.952 6.80533 18.7653 5.984 18.392C5.16267 18.0293 4.45333 17.5227 3.856 16.872C3.25867 16.2213 2.8 15.48 2.48 14.648C2.16 13.816 2 12.936 2 12.008C2 11.1547 2.128 10.3173 2.384 9.496C2.64 8.664 3.02933 7.912 3.552 7.24C4.07467 6.55733 4.736 6.01333 5.536 5.608C6.34667 5.20267 7.30133 5 8.4 5C9.54133 5 10.5333 5.19733 11.376 5.592C12.2187 5.976 12.912 6.49333 13.456 7.144C14 7.79467 14.4053 8.53067 14.672 9.352C14.9387 10.1733 15.072 11.016 15.072 11.88C15.072 12.9147 14.9173 13.864 14.608 14.728C14.2987 15.592 13.8613 16.344 13.296 16.984C12.7307 17.6133 12.0587 18.0987 11.28 18.44C10.5013 18.7813 9.648 18.952 8.72 18.952ZM8.72 16.28C9.36 16.28 9.952 16.1253 10.496 15.816C11.04 15.496 11.4773 15 11.808 14.328C12.1387 13.656 12.304 12.7813 12.304 11.704C12.304 10.776 12.1227 10.0133 11.76 9.416C11.3973 8.81867 10.928 8.376 10.352 8.088C9.776 7.8 9.17333 7.656 8.544 7.656C7.82933 7.656 7.22667 7.784 6.736 8.04C6.24533 8.296 5.85067 8.64267 5.552 9.08C5.25333 9.50667 5.04 9.98667 4.912 10.52C4.784 11.0533 4.72 11.6027 4.72 12.168C4.72 12.7227 4.82667 13.2507 5.04 13.752C5.25333 14.2427 5.54133 14.68 5.904 15.064C6.27733 15.4373 6.704 15.736 7.184 15.96C7.664 16.1733 8.176 16.28 8.72 16.28Z" fill="#0E1950"/>
<path d="M17.0239 19.048C17.0239 17.384 17.0452 15.8853 17.0879 14.552C17.1412 13.208 17.2052 11.9867 17.2799 10.888C17.3652 9.77867 17.4559 8.74933 17.5519 7.8C17.6585 6.84 17.7599 5.92267 17.8559 5.048L20.6079 5.16C20.5652 5.49067 20.5172 5.848 20.4639 6.232C20.8265 6.72267 21.2212 7.28267 21.6479 7.912C22.0852 8.54133 22.5279 9.208 22.9759 9.912C23.4345 10.6053 23.8825 11.304 24.3199 12.008C24.7572 12.7013 25.1732 13.368 25.5679 14.008C25.9625 14.6373 26.3092 15.2027 26.6079 15.704C26.6825 14.968 26.7199 13.9333 26.7199 12.6C26.7199 11.9173 26.7092 11.2133 26.6879 10.488C26.6665 9.76267 26.6399 9.06933 26.6079 8.408C26.5759 7.736 26.5332 7.13867 26.4799 6.616C26.4265 6.08267 26.3679 5.66667 26.3039 5.368L29.3119 5C29.3332 5.52267 29.3439 6.21067 29.3439 7.064C29.3545 7.90667 29.3599 8.80267 29.3599 9.752C29.3599 10.5947 29.3545 11.4427 29.3439 12.296C29.3332 13.1387 29.3119 13.9173 29.2799 14.632C29.2479 15.3467 29.1999 15.9387 29.1359 16.408C29.0185 17.3253 28.7839 18.0027 28.4319 18.44C28.0799 18.8773 27.5839 19.096 26.9439 19.096C26.4212 19.096 25.9412 18.9147 25.5039 18.552C25.0772 18.1893 24.6132 17.592 24.1119 16.76C23.7705 16.184 23.3705 15.5227 22.9119 14.776C22.4639 14.0187 21.9945 13.2453 21.5039 12.456C21.0239 11.6667 20.5599 10.9147 20.1119 10.2C20.0265 11.448 19.9625 12.696 19.9199 13.944C19.8772 15.1813 19.8559 16.3013 19.8559 17.304C19.8559 17.624 19.8559 17.9227 19.8559 18.2C19.8559 18.488 19.8612 18.7547 19.8719 19L17.0239 19.048Z" fill="#0E1950"/>
</svg>
