<svg width="36" height="36" viewBox="0 0 36 36" fill="none" xmlns="http://www.w3.org/2000/svg">
<path d="M25.9141 8.205C26.5666 8.445 27.0001 9.0675 27.0001 9.7635C27.422 16.1963 27.4041 19.8022 27.0001 26.235C27.0001 26.931 26.5651 27.5535 25.9141 27.7935C24.6787 28.2488 23.3215 28.2488 22.0861 27.7935C21.7676 27.6761 21.4928 27.4639 21.2986 27.1855C21.1045 26.9071 21.0003 26.5759 21.0001 26.2365C20.6232 19.9381 20.5839 16.3452 21.0001 9.765C21.0001 9.069 21.4351 8.4465 22.0861 8.205C23.3215 7.74972 24.6787 7.74972 25.9141 8.205ZM13.9141 8.205C14.5666 8.445 15.0001 9.0675 15.0001 9.7635C15.4628 16.1958 15.4442 19.8026 15.0001 26.235C15.0001 26.931 14.5651 27.5535 13.9141 27.7935C12.6787 28.2488 11.3215 28.2488 10.0861 27.7935C9.76763 27.6761 9.49282 27.4639 9.29865 27.1855C9.10447 26.9071 9.00028 26.5759 9.00008 26.2365C8.64891 19.9422 8.64336 16.34 9.00008 9.765C9.00008 9.069 9.43508 8.4465 10.0861 8.205C11.3215 7.74972 12.6787 7.74972 13.9141 8.205Z" fill="#0E1950"/>
</svg>
