<svg width="75.611" height="79.314" xmlns="http://www.w3.org/2000/svg">
 <defs>
  <style>.a{fill:#fff;}</style>
 </defs>
 <g>
  <title>background</title>
  <rect fill="none" id="canvas_background" height="402" width="582" y="-1" x="-1"/>
 </g>
 <g>
  <title>Layer 1</title>
  <g id="svg_1">
   <g id="svg_2">
    <path id="svg_3" d="m58.144,38.185999c-6.292,-6.745 -23.52,-5.239 -27.93,4.4c-4.822,10.659 8.408,25.534 12.7,24.089c2.646,-0.723 0.764,-7.287 5.88,-12.044s9.7,-2.228 11.76,-6.022a10.352,10.352 0 0 0 -2.41,-10.423z" fill="#fff"/>
    <path id="svg_4" d="m48.794999,12.708c0.94,-6.564 -13.289,-15.176 -17.64,-12.045a13.14,13.14 0 0 0 -1.964,10.237a12.863,12.863 0 0 0 6.079,8.371a10.809,10.809 0 0 0 13.524,-6.564l0.001,0.001z" fill="#fff"/>
    <path id="svg_5" d="m75.608001,27.763c0,-3.857 -5.88,-12.466 -10.111,-10.418s-3.94,9.7 -2.117,13.008c2.702,5.179 12.404,2.653 12.228,-2.59z" fill="#fff"/>
    <path id="svg_6" d="m25.275,30.775c-1.646,-7.769 -19.051,-11.683 -23.52,-6.023s0,19.09 8.82,20.6a13.987,13.987 0 0 0 10.385,-4.075a14.688,14.688 0 0 0 4.315,-10.5l0,-0.002z" fill="#fff"/>
    <path id="svg_7" d="m25.274,66.907999c-1.705,-7.588 -14.582,-9.576 -17.64,-6.022s2.7,18.548 9.29,18.428a10.947,10.947 0 0 0 8.35,-12.406z" fill="#fff"/>
   </g>
  </g>
 </g>
</svg>