<svg width="36" height="36" viewBox="0 0 36 36" fill="none" xmlns="http://www.w3.org/2000/svg">
<path d="M28.899 20.274C29.2462 20.0053 29.5273 19.6606 29.7207 19.2664C29.914 18.8723 30.0146 18.439 30.0146 18C30.0146 17.5609 29.914 17.1277 29.7207 16.7335C29.5273 16.3394 29.2462 15.9947 28.899 15.726C24.4028 12.2469 19.3822 9.50472 14.025 7.60199L13.0455 7.25399C11.1735 6.58949 9.19503 7.85549 8.94153 9.78899C8.23336 15.2401 8.23336 20.7599 8.94153 26.211C9.19653 28.1445 11.1735 29.4105 13.0455 28.746L14.025 28.398C19.3822 26.4953 24.4028 23.753 28.899 20.274Z" fill="#0E1950"/>
</svg>
