<svg width="36" height="36" viewBox="0 0 36 36" fill="none" xmlns="http://www.w3.org/2000/svg">
<path d="M9.81755 12.2445C9.65818 12.2023 9.51002 12.1257 9.38356 12.0199C9.2571 11.9142 9.15542 11.7819 9.08573 11.6325C9.01604 11.4831 8.98004 11.3202 8.98026 11.1554C8.98049 10.9905 9.01695 10.8277 9.08705 10.6785L11.5771 5.37601C11.6677 5.18183 11.812 5.0176 11.9929 4.90263C12.1738 4.78767 12.3837 4.72677 12.598 4.72708C12.8123 4.7274 13.0221 4.78892 13.2026 4.90441C13.3831 5.01991 13.5269 5.18456 13.6171 5.37901L14.7151 7.73251C14.7543 7.71678 14.7943 7.70326 14.8351 7.692C17.4256 6.99821 20.7703 6.67095 23.2501 7.692C25.7299 8.71306 27.8991 10.4795 29.2501 12.7961C30.6011 15.1128 31.0827 18.2432 30.7501 20.9043C30.4176 23.5654 28.8797 26.587 27.0001 28.5C25.1206 30.4129 22.3818 31.2235 19.727 31.6029C17.0722 31.9823 14.3662 31.4781 12.0261 30.1681C9.68605 28.8581 7.84165 26.815 6.77711 24.3535C5.71257 21.8921 5.48696 19.1488 6.13506 16.5465C6.17091 16.4031 6.23465 16.2682 6.32265 16.1494C6.41065 16.0306 6.52118 15.9304 6.64793 15.8543C6.77469 15.7783 6.91518 15.7279 7.06138 15.7062C7.20759 15.6844 7.35665 15.6917 7.50005 15.7275C7.64346 15.7634 7.7784 15.8271 7.89716 15.9151C8.01593 16.0031 8.1162 16.1136 8.19226 16.2404C8.26831 16.3671 8.31865 16.5076 8.3404 16.6538C8.36216 16.8 8.35491 16.9491 8.31905 17.0925C7.79348 19.2047 7.9732 21.4308 8.83081 23.4314C9.68841 25.4319 11.1768 27.097 13.069 28.1727C14.9612 29.2485 17.1533 29.6758 19.311 29.3894C21.4687 29.1031 23.4736 28.1189 25.0197 26.5869C26.5659 25.0549 27.5685 23.0593 27.8747 20.9043C28.1809 18.7493 27.7738 16.5534 26.7156 14.6514C25.6573 12.7493 24.006 11.2456 22.0134 10.3696C20.0209 9.49363 17.7965 9.29341 15.6796 9.79951L16.7896 12.174C16.8804 12.3679 16.914 12.5838 16.8865 12.7961C16.8589 13.0085 16.7713 13.2086 16.6339 13.3729C16.4966 13.5372 16.3152 13.6589 16.111 13.7237C15.9069 13.7884 15.6885 13.7936 15.4816 13.7385L9.81755 12.2445Z" fill="#0E1950"/>
</svg>
