<svg width="32" height="24" viewBox="0 0 32 24" fill="none" xmlns="http://www.w3.org/2000/svg">
<path d="M4.328 19.048C4.296 18.3227 4.28 17.5227 4.28 16.648C4.28 15.8053 4.296 14.9093 4.328 13.96C4.36 13.0107 4.408 12.0507 4.472 11.08C4.536 10.0987 4.62133 9.144 4.728 8.216C4.55733 8.25867 4.392 8.30133 4.232 8.344C4.08267 8.376 3.944 8.41333 3.816 8.456L3 5.912C5.58133 5.304 7.73067 5 9.448 5C12.936 5 14.68 6.328 14.68 8.984C14.68 10.232 14.264 11.224 13.432 11.96C12.6 12.6853 11.3787 13.144 9.768 13.336C10.7387 14.1573 11.7147 14.8347 12.696 15.368C13.688 15.8907 14.6907 16.3333 15.704 16.696L13.944 19.048C13.3787 18.8453 12.7867 18.5627 12.168 18.2C11.5493 17.8373 10.936 17.4373 10.328 17C9.72 16.5627 9.13867 16.12 8.584 15.672C8.04 15.224 7.55467 14.808 7.128 14.424C7.11733 15.16 7.10667 15.9067 7.096 16.664C7.096 17.4107 7.096 18.184 7.096 18.984L7 19.08C6.59467 19.08 6.15733 19.08 5.688 19.08C5.22933 19.0907 4.81333 19.112 4.44 19.144L4.328 19.048ZM9.304 7.544C9.00533 7.544 8.696 7.56 8.376 7.592C8.056 7.61333 7.736 7.64533 7.416 7.688C7.37333 8.28533 7.336 8.87733 7.304 9.464C7.272 10.04 7.24533 10.616 7.224 11.192C7.69333 11.1813 8.2 11.1547 8.744 11.112C9.29867 11.0587 9.82133 10.9627 10.312 10.824C10.8027 10.6747 11.2027 10.4613 11.512 10.184C11.832 9.90667 11.992 9.53867 11.992 9.08C11.992 8.54667 11.7733 8.15733 11.336 7.912C10.8987 7.66667 10.2213 7.544 9.304 7.544Z" fill="#0E1950"/>
<path d="M22.8579 19.192C21.8339 19.192 20.9859 19.0267 20.3139 18.696C19.6419 18.376 19.1032 17.9333 18.6979 17.368C18.3032 16.792 18.0045 16.1307 17.8019 15.384C17.6099 14.6373 17.4819 13.8373 17.4179 12.984C17.3645 12.1307 17.3379 11.2667 17.3379 10.392C17.3379 9.4 17.3699 8.43467 17.4339 7.496C17.4979 6.54667 17.5672 5.752 17.6419 5.112L20.5859 5.288C20.4792 6.06667 20.3939 6.76533 20.3299 7.384C20.2765 7.992 20.2392 8.568 20.2179 9.112C20.1965 9.656 20.1859 10.216 20.1859 10.792C20.1859 11.24 20.1912 11.7253 20.2019 12.248C20.2232 12.76 20.2712 13.272 20.3459 13.784C20.4312 14.2853 20.5592 14.744 20.7299 15.16C20.9112 15.5653 21.1619 15.896 21.4819 16.152C21.8125 16.3973 22.2339 16.52 22.7459 16.52C23.3005 16.52 23.7485 16.3973 24.0899 16.152C24.4419 15.896 24.7139 15.56 24.9059 15.144C25.0979 14.7173 25.2365 14.248 25.3219 13.736C25.4072 13.2133 25.4552 12.6853 25.4659 12.152C25.4872 11.608 25.4979 11.096 25.4979 10.616C25.4979 9.70933 25.4712 8.82933 25.4179 7.976C25.3645 7.12267 25.2952 6.216 25.2099 5.256L28.1539 5.032C28.2392 6.056 28.3032 6.99467 28.3459 7.848C28.3885 8.69067 28.4099 9.46933 28.4099 10.184C28.4099 11.1547 28.3725 12.088 28.2979 12.984C28.2339 13.88 28.0952 14.7067 27.8819 15.464C27.6685 16.2107 27.3592 16.8667 26.9539 17.432C26.5485 17.9867 26.0099 18.4187 25.3379 18.728C24.6765 19.0373 23.8499 19.192 22.8579 19.192Z" fill="#0E1950"/>
</svg>
