<svg width="36" height="36" viewBox="0 0 36 36" fill="none" xmlns="http://www.w3.org/2000/svg">
<path fill-rule="evenodd" clip-rule="evenodd" d="M30 13.8L32.8 14.7C33.5 14.9 34 15.6 34 16.3V19.7C34 20.4 33.5 21 32.9 21.2L30 22.1L29.4 23.6L30.8 26.2C31.1 26.8 31 27.6 30.5 28.1L28.1 30.5C27.6 31 26.8 31.1 26.2 30.8L23.6 29.4L22.1 30L21.2 32.9C21 33.5 20.4 34 19.7 34H16.3C15.6 34 15 33.5 14.8 32.9L13.9 30L12.4 29.4L9.8 30.8C9.2 31.1 8.4 31 7.9 30.5L5.5 28.1C5 27.6 4.9 26.8 5.2 26.2L6.6 23.6L6 22.1L3.2 21.2C2.5 21 2 20.4 2 19.7V16.3C2 15.6 2.5 15 3.1 14.8L5.9 13.9C6 13.65 6.1 13.375 6.2 13.1C6.3 12.825 6.4 12.55 6.5 12.3L5.2 9.8C4.9 9.2 5 8.4 5.5 7.9L7.9 5.5C8.4 5 9.2 4.9 9.8 5.2L12.4 6.6C12.9 6.3 13.4 6.1 14 6L14.9 3.2C15 2.5 15.6 2 16.3 2H19.7C20.4 2 21 2.5 21.2 3.1L22.1 5.9L23.6 6.5L26.2 5.1C26.8 4.8 27.6 4.9 28.1 5.4L30.5 7.8C31 8.3 31.1 9.1 30.8 9.7L29.4 12.3L30 13.8ZM11.1 18C11.1 14.1 14.2 11 18.1 11C22 11 25.1 14.1 25.1 18C25.1 21.9 22 25 18.1 25C14.2 25 11.1 21.9 11.1 18ZM13.1 18C13.1 20.8 15.3 23 18.1 23C20.9 23 23.1 20.8 23.1 18C23.1 15.2 20.9 13 18.1 13C15.3 13 13.1 15.2 13.1 18Z" fill="#0E1950"/>
</svg>
