<svg width="31" height="26" viewBox="0 0 31 26" fill="none" xmlns="http://www.w3.org/2000/svg">
<path d="M18.915 2.269C18.8819 2.00158 18.7773 1.74801 18.6124 1.53495C18.4474 1.32189 18.228 1.15721 17.9774 1.05822C17.7268 0.959229 17.4541 0.929579 17.1881 0.972389C16.922 1.0152 16.6724 1.12889 16.4655 1.3015L8.937 7.576C8.80227 7.68835 8.63243 7.74992 8.457 7.75H2.625C1.59 7.75 0.75 8.59 0.75 9.625V16.375C0.75 17.41 1.59 18.25 2.625 18.25H8.457C8.63243 18.2501 8.80227 18.3117 8.937 18.424L16.467 24.697C16.6738 24.8692 16.9232 24.9825 17.1889 25.0252C17.4546 25.0679 17.7269 25.0383 17.9773 24.9395C18.2276 24.8407 18.4468 24.6764 18.6117 24.4637C18.7767 24.2511 18.8815 23.998 18.915 23.731L19.0575 22.582C19.8525 16.219 19.8525 9.781 19.0575 3.418L18.915 2.269ZM22.8555 9.553C22.96 9.44846 23.084 9.36553 23.2206 9.30895C23.3571 9.25236 23.5035 9.22324 23.6512 9.22324C23.799 9.22324 23.9454 9.25236 24.0819 9.30895C24.2185 9.36553 24.3425 9.44846 24.447 9.553L26.304 11.4085L28.1595 9.553C28.2625 9.44247 28.3867 9.35382 28.5247 9.29233C28.6627 9.23084 28.8117 9.19778 28.9627 9.19511C29.1138 9.19245 29.2638 9.22024 29.4039 9.27682C29.544 9.3334 29.6712 9.41762 29.7781 9.52444C29.8849 9.63127 29.9691 9.75852 30.0257 9.89861C30.0823 10.0387 30.1101 10.1887 30.1074 10.3398C30.1047 10.4908 30.0717 10.6398 30.0102 10.7778C29.9487 10.9158 29.86 11.04 29.7495 11.143L27.8955 13L29.7525 14.8555C29.857 14.96 29.9399 15.0841 29.9964 15.2206C30.053 15.3571 30.0821 15.5035 30.0821 15.6513C30.0821 15.799 30.053 15.9454 29.9964 16.0819C29.9399 16.2184 29.857 16.3425 29.7525 16.447C29.648 16.5515 29.5239 16.6344 29.3874 16.6909C29.2509 16.7475 29.1045 16.7766 28.9568 16.7766C28.809 16.7766 28.6626 16.7475 28.5261 16.6909C28.3896 16.6344 28.2655 16.5515 28.161 16.447L26.304 14.5915L24.4485 16.447C24.2352 16.6457 23.9532 16.7539 23.6617 16.7488C23.3703 16.7436 23.0922 16.6256 22.8861 16.4194C22.6799 16.2133 22.5619 15.9352 22.5567 15.6438C22.5516 15.3523 22.6598 15.0703 22.8585 14.857L24.711 13L22.854 11.143C22.6433 10.9321 22.525 10.6461 22.525 10.348C22.525 10.0499 22.6448 9.76394 22.8555 9.553Z" fill="white"/>
</svg>
