<svg width="30" height="26" viewBox="0 0 30 26" fill="none" xmlns="http://www.w3.org/2000/svg">
<path d="M18.915 2.269C18.8819 2.00158 18.7773 1.74801 18.6124 1.53495C18.4474 1.32189 18.228 1.15721 17.9774 1.05822C17.7268 0.959229 17.4541 0.929579 17.1881 0.972389C16.922 1.0152 16.6724 1.12889 16.4655 1.3015L8.937 7.576C8.80227 7.68835 8.63243 7.74992 8.457 7.75H2.625C1.59 7.75 0.75 8.59 0.75 9.625V16.375C0.75 17.41 1.59 18.25 2.625 18.25H8.457C8.63243 18.2501 8.80227 18.3117 8.937 18.424L16.467 24.697C16.6738 24.8692 16.9232 24.9825 17.1889 25.0252C17.4546 25.0679 17.7269 25.0383 17.9773 24.9395C18.2276 24.8407 18.4468 24.6764 18.6117 24.4637C18.7767 24.2511 18.8815 23.998 18.915 23.731L19.0575 22.582C19.8525 16.219 19.8525 9.781 19.0575 3.418L18.915 2.269ZM26.862 3.919C27.0023 3.87249 27.1503 3.85407 27.2977 3.86479C27.445 3.8755 27.5889 3.91514 27.7209 3.98144C27.8529 4.04775 27.9706 4.13942 28.0673 4.25121C28.1639 4.36301 28.2375 4.49274 28.284 4.633C29.154 7.2655 29.625 10.078 29.625 13C29.6275 15.8427 29.1748 18.6675 28.284 21.367C28.2391 21.509 28.1664 21.6407 28.0701 21.7544C27.9739 21.8682 27.856 21.9616 27.7234 22.0294C27.5907 22.0972 27.4459 22.138 27.2974 22.1494C27.1489 22.1608 26.9995 22.1426 26.8581 22.0958C26.7167 22.049 26.5859 21.9746 26.4735 21.8769C26.361 21.7792 26.2691 21.6601 26.2031 21.5266C26.137 21.393 26.0981 21.2477 26.0887 21.0991C26.0792 20.9504 26.0994 20.8013 26.148 20.6605C26.9631 18.1888 27.3773 15.6026 27.375 13C27.3773 10.3974 26.9631 7.81118 26.148 5.3395C26.0545 5.05645 26.0772 4.74786 26.2111 4.48153C26.345 4.21519 26.5791 4.01287 26.862 3.919ZM24.048 6.922C23.943 6.64492 23.7328 6.42047 23.4633 6.29741C23.1937 6.17435 22.8865 6.16262 22.6083 6.26476C22.3301 6.3669 22.1035 6.57466 21.9776 6.84292C21.8517 7.11119 21.8368 7.41828 21.936 7.6975C22.5435 9.3475 22.875 11.134 22.875 13C22.8764 14.809 22.5585 16.604 21.936 18.3025C21.8368 18.5817 21.8517 18.8888 21.9776 19.1571C22.1035 19.4253 22.3301 19.6331 22.6083 19.7352C22.8865 19.8374 23.1937 19.8256 23.4633 19.7026C23.7328 19.5795 23.943 19.3551 24.048 19.078C24.7642 17.1318 25.1288 15.0738 25.125 13C25.125 10.8655 24.7455 8.818 24.048 6.922Z" fill="#0E1950"/>
</svg>
