<svg width="31" height="24" viewBox="0 0 31 24" fill="none" xmlns="http://www.w3.org/2000/svg">
<path fill-rule="evenodd" clip-rule="evenodd" d="M15.2085 0.8625C16.7865 -0.453 19.1955 0.496501 19.4505 2.5365C20.2365 8.8215 20.2365 15.1785 19.4505 21.4635C19.1955 23.5035 16.7865 24.453 15.2085 23.1375L8.697 17.712C8.62964 17.6558 8.54471 17.625 8.457 17.625H3C2.30381 17.625 1.63613 17.3484 1.14384 16.8562C0.651562 16.3639 0.375 15.6962 0.375 15V9C0.375 7.551 1.551 6.375 3 6.375H8.457C8.54471 6.37496 8.62964 6.34418 8.697 6.288L15.2085 0.8625ZM17.2185 2.8155C17.2106 2.75336 17.1862 2.69447 17.1478 2.645C17.1094 2.59553 17.0584 2.5573 17.0001 2.5343C16.9418 2.5113 16.8785 2.50439 16.8166 2.51427C16.7547 2.52416 16.6967 2.55049 16.6485 2.5905L10.1385 8.016C9.66656 8.40956 9.0715 8.62508 8.457 8.625H3C2.90054 8.625 2.80516 8.66451 2.73483 8.73484C2.66451 8.80516 2.625 8.90055 2.625 9V15C2.625 15.207 2.793 15.375 3 15.375H8.457C9.072 15.375 9.666 15.5895 10.137 15.984L16.6485 21.4095C16.6967 21.4495 16.7547 21.4758 16.8166 21.4857C16.8785 21.4956 16.9418 21.4887 17.0001 21.4657C17.0584 21.4427 17.1094 21.4045 17.1478 21.355C17.1862 21.3055 17.2106 21.2466 17.2185 21.1845C17.9805 15.0855 17.9805 8.9145 17.2185 2.8155Z" fill="#0E1950"/>
<path d="M22.803 8.553C23.0139 8.34232 23.2999 8.22399 23.598 8.22399C23.8961 8.22399 24.1821 8.34232 24.393 8.553L26.25 10.4085L28.1055 8.553C28.3176 8.34797 28.6017 8.23444 28.8967 8.23686C29.1917 8.23929 29.4739 8.35747 29.6826 8.56596C29.8912 8.77444 30.0097 9.05655 30.0124 9.35153C30.0151 9.6465 29.9018 9.93073 29.697 10.143L27.8415 12L29.697 13.8555C29.902 14.0676 30.0156 14.3517 30.0131 14.6467C30.0107 14.9417 29.8925 15.2239 29.684 15.4326C29.4756 15.6412 29.1934 15.7597 28.8985 15.7624C28.6035 15.7651 28.3193 15.6518 28.107 15.447L26.25 13.5915L24.3945 15.447C24.1824 15.652 23.8983 15.7656 23.6033 15.7631C23.3083 15.7607 23.0261 15.6425 22.8174 15.434C22.6088 15.2256 22.4903 14.9434 22.4876 14.6485C22.4849 14.3535 22.5982 14.0693 22.803 13.857L24.6585 12L22.803 10.1445C22.6985 10.04 22.6155 9.91597 22.5589 9.77944C22.5024 9.6429 22.4732 9.49655 22.4732 9.34875C22.4732 9.20095 22.5024 9.0546 22.5589 8.91807C22.6155 8.78153 22.6985 8.65748 22.803 8.553Z" fill="#0E1950"/>
</svg>
