<svg width="30" height="24" viewBox="0 0 30 24" fill="none" xmlns="http://www.w3.org/2000/svg">
<path fill-rule="evenodd" clip-rule="evenodd" d="M15.2085 0.8625C16.7865 -0.453 19.1955 0.496501 19.4505 2.5365C20.2365 8.8215 20.2365 15.1785 19.4505 21.4635C19.1955 23.5035 16.7865 24.453 15.2085 23.1375L8.697 17.712C8.62964 17.6558 8.54471 17.625 8.457 17.625H3C2.30381 17.625 1.63613 17.3484 1.14384 16.8562C0.651562 16.3639 0.375 15.6962 0.375 15V9C0.375 7.551 1.551 6.375 3 6.375H8.457C8.54471 6.37496 8.62964 6.34418 8.697 6.288L15.2085 0.8625ZM17.2185 2.8155C17.2106 2.75336 17.1862 2.69447 17.1478 2.645C17.1094 2.59553 17.0584 2.5573 17.0001 2.5343C16.9418 2.5113 16.8785 2.50439 16.8166 2.51427C16.7547 2.52416 16.6967 2.55049 16.6485 2.5905L10.1385 8.016C9.66656 8.40956 9.0715 8.62508 8.457 8.625H3C2.90054 8.625 2.80516 8.66451 2.73484 8.73483C2.66451 8.80516 2.625 8.90054 2.625 9V15C2.625 15.207 2.793 15.375 3 15.375H8.457C9.072 15.375 9.666 15.5895 10.137 15.984L16.6485 21.4095C16.6967 21.4495 16.7547 21.4758 16.8166 21.4857C16.8785 21.4956 16.9418 21.4887 17.0001 21.4657C17.0584 21.4427 17.1094 21.4045 17.1478 21.355C17.1862 21.3055 17.2106 21.2466 17.2185 21.1845C17.9805 15.0855 17.9805 8.9145 17.2185 2.8155Z" fill="#0E1950"/>
<path d="M26.862 2.919C27.0023 2.87249 27.1503 2.85407 27.2977 2.86478C27.445 2.8755 27.5889 2.91514 27.7209 2.98144C27.8529 3.04775 27.9706 3.13941 28.0673 3.25121C28.1639 3.363 28.2375 3.49274 28.284 3.633C29.154 6.2655 29.625 9.078 29.625 12C29.6275 14.8427 29.1748 17.6675 28.284 20.367C28.2391 20.509 28.1664 20.6407 28.0701 20.7544C27.9739 20.8682 27.856 20.9616 27.7234 21.0294C27.5907 21.0972 27.4459 21.138 27.2974 21.1494C27.1489 21.1608 26.9995 21.1426 26.8581 21.0958C26.7167 21.049 26.5859 20.9746 26.4735 20.8769C26.361 20.7792 26.2691 20.6601 26.2031 20.5266C26.137 20.393 26.0981 20.2477 26.0887 20.0991C26.0792 19.9504 26.0994 19.8013 26.148 19.6605C26.9631 17.1888 27.3773 14.6026 27.375 12C27.3773 9.39739 26.9631 6.81118 26.148 4.3395C26.0545 4.05644 26.0772 3.74786 26.2111 3.48153C26.345 3.21519 26.5791 3.01287 26.862 2.919ZM24.048 5.922C23.943 5.64492 23.7328 5.42047 23.4633 5.29741C23.1937 5.17435 22.8865 5.16262 22.6083 5.26476C22.3301 5.3669 22.1035 5.57466 21.9776 5.84292C21.8517 6.11119 21.8368 6.41828 21.936 6.6975C22.5435 8.349 22.875 10.134 22.875 12C22.8764 13.809 22.5585 15.604 21.936 17.3025C21.8368 17.5817 21.8517 17.8888 21.9776 18.1571C22.1035 18.4253 22.3301 18.6331 22.6083 18.7352C22.8865 18.8374 23.1937 18.8256 23.4633 18.7026C23.7328 18.5795 23.943 18.3551 24.048 18.078C24.7643 16.1318 25.129 14.0738 25.125 12C25.125 9.8655 24.7455 7.818 24.048 5.922Z" fill="#0E1950"/>
</svg>
