<svg xmlns="http://www.w3.org/2000/svg" width="89.86" height="63.1" viewBox="0 0 89.86 63.1">
  <defs>
    <style type="text/css">
      .a {
        fill: #ccc;
      }

      .a, .b, .c, .d, .e {
        stroke: #000;
        stroke-miterlimit: 10;
      }

      .b {
        fill: #f5c7c7;
      }

      .b, .e {
        stroke-width: 0.5px;
      }

      .c {
        fill: #e6e6e6;
      }

      .d {
        fill: #fff;
      }
    </style>
  </defs>
  <title>Cat_3D_body</title>
  <g>
    <path class="a" d="M13,20.52c-.3-3.37-.48-6.9-.52-10.58q0-1.51,0-3l7-2a17.21,17.21,0,0,0-5,15Z"/>
    <path class="b" d="M14.5,18.94a18.17,18.17,0,0,1,0-7,10.4,10.4,0,0,1,1-3,9.49,9.49,0,0,1,3.58-3.61A10.15,10.15,0,0,1,26.18,14Z"/>
    <path class="a" d="M13.5.94a12.76,12.76,0,0,1,9,1,18.22,18.22,0,0,1,7,6,24.91,24.91,0,0,1,3,5l-6,1a32.57,32.57,0,0,0-4-6,32.7,32.7,0,0,0-4-4l2,2a11.87,11.87,0,0,0-6,1c-2.82,1.32-3.95,3.37-5,3-.68-.24-1.31-1.47-1-6A11.73,11.73,0,0,1,13.5.94Z"/>
    <path class="a" d="M80.12,30.92c1-3.22,2-6.62,2.88-10.19.24-1,.46-2,.68-2.93l-5.85-3.42a38.45,38.45,0,0,1-1.26,12.8Z"/>
    <path class="b" d="M78.5,28.94a16.85,16.85,0,0,0,3-8,16.65,16.65,0,0,0,0-3l-3.39-3.09a9.72,9.72,0,0,0-4.89,2,10.65,10.65,0,0,0-3.48,5Z"/>
    <path class="a" d="M87.5,16.94a11.31,11.31,0,0,0-3.58-4.22,11.67,11.67,0,0,0-8.12-1.89c-3.39.52-5.68,2.61-7.67,4.37a24.74,24.74,0,0,0-3.84,4.23l5.18,2.24a32.7,32.7,0,0,1,5-5A30.94,30.94,0,0,1,79,13.62L76.7,15.14a14.67,14.67,0,0,1,5.18,2.24c2.16,1.51,3,3.25,4.05,3C86.46,20.26,87.13,19.59,87.5,16.94Z"/>
    <path class="c" d="M87.5,62.94a33.27,33.27,0,0,0,1.22-17.29C86.15,33.18,76.6,26.31,71.94,22.92,58.57,13.21,38,8.25,20.51,16.47c-3.91,1.84-15.15,7-19,18.16a23.23,23.23,0,0,0-1,4.31v16c.82.11,5.73.89,8,5a8.67,8.67,0,0,1,1,3"/>
    <path class="d" d="M44.5,35.94a15.18,15.18,0,0,0-5,4c-2.8,3.46-5.15,9.6-2.52,15s8.56,6.62,10.52,7c4.72,1,13.61,1,17.1-5.27,2.76-5,.34-10.73-.1-11.73,1.89,1,4,2,4,2a40.8,40.8,0,0,0-6-3c-8-3.17-11.31-.76-15-4-3.07-2.7-3.84-7.07-4-7A16.67,16.67,0,0,0,44.5,35.94Z"/>
    <path class="d" d="M8.5,37.94a13.22,13.22,0,0,1,4-7c-1.25-.48-2-.85-2-1,.11-.4,5.64,1.73,11,1,2.75-.38,6.63-1.68,11-6l-2,2a21.09,21.09,0,0,1,3.94,6c.86,2,3.86,8.87.32,15.3C34,49.7,31,54.56,25.19,55.6c-6.81,1.21-12.7-3.9-15.15-8.53A13.52,13.52,0,0,1,8.5,37.94Z"/>
    <path class="b" d="M33.12,56.59c-2.15-.65-4.64-1.41-5.25-.53-.73,1,1.06,4.54,3.93,5.34s6-1.06,6-2.32C37.73,58,35.27,57.25,33.12,56.59Z"/>
    <path class="e" d="M28.9,48A2.2,2.2,0,0,1,31,50.47a1.87,1.87,0,0,1-3.73-.14A2.12,2.12,0,0,1,28.9,48Z"/>
    <path class="e" d="M41.58,50.32a2.19,2.19,0,0,1,.4,3.21,2,2,0,0,1-2.53.44,2.05,2.05,0,0,1-.56-2.53A2.13,2.13,0,0,1,41.58,50.32Z"/>
  </g>
</svg>
