<svg xmlns="http://www.w3.org/2000/svg" viewBox="0 0 40.54 25.51"><defs><style type="text/css">.cls-1{fill:#666;}.cls-1,.cls-3,.cls-4,.cls-5{stroke:#000;stroke-miterlimit:10;}.cls-1,.cls-3,.cls-4{stroke-width:0.5px;}.cls-2{fill:#c5b3b1;}.cls-3{fill:#ffbfe1;}.cls-4{fill:#b8b7b1;}.cls-5{fill:gray;stroke-width:0.2px;}.cls-6{fill:#f5c7c7;}</style></defs><title>Ресурс 40</title><g id="Слой_2" data-name="Слой 2"><g id="фон"><path class="cls-1" d="M37.76,4.25c-.26-1.34-11-1-20.89,1.51C9.54,7.63-.1,11.4.26,12.88c.47,1.9,17.41-.4,31.72-5.7C34.9,6.1,37.9,5,37.76,4.25Z"/><path class="cls-2" d="M20.63,6.8A23.79,23.79,0,0,1,30,5.19c1.6.06,4,.14,4,.71S31.08,8,17.67,11.31Z"/><path class="cls-3" d="M37.76,4.25c.06,0,0,.16,0,.18,0,.23.69,3.72,2.45,11.76a96.88,96.88,0,0,1-16.82,6.07,96,96,0,0,1-20,3L.92,13.16a74.86,74.86,0,0,0,20.19-2.37A68.91,68.91,0,0,0,37.4,4.44S37.67,4.19,37.76,4.25Z"/><path class="cls-4" d="M16.87,5.76C19,4.29,19.44,2.09,18.49,1c-1.31-1.48-5-.47-5.14.1-.15.74,5.79.53,7.11,3.27,1,2.11-1.13,5.1-3.05,7.25A70.33,70.33,0,0,1,5.5,13.3c-2.68.14-5.07.25-5.24-.42-.33-1.28,7.59-4.41,8.09-4.6A51.89,51.89,0,0,1,16.87,5.76Z"/><path class="cls-4" d="M16.36,6.43,17,9.55"/><path class="cls-5" d="M8.5,22.05A2,2,0,0,0,11,21.14l1.42-1a2.72,2.72,0,0,0,2-3,2.84,2.84,0,0,0-1.17-1.84A1.64,1.64,0,0,0,11,16a2.54,2.54,0,0,0-1.34-1A1.47,1.47,0,0,0,8,15.66,2.4,2.4,0,0,0,8.16,18a1.59,1.59,0,0,0-1.65,1.28A3,3,0,0,0,8.5,22.05Z"/><path class="cls-6" d="M9.93,19.82c-.41-.34-.63-1.82.17-2.25a1.4,1.4,0,0,1,1.75.77C12.06,19.13,10.5,20.27,9.93,19.82Z"/><path class="cls-6" d="M7.52,20.37c-.14-.14-.27-.7,0-.82s.51.17.58.37S7.72,20.56,7.52,20.37Z"/><path class="cls-6" d="M9,16.77c-.14-.14-.27-.7-.05-.82s.51.17.58.36S9.17,17,9,16.77Z"/><path class="cls-6" d="M12.77,16.85c-.15-.14-.28-.7,0-.82s.51.17.57.36S13,17,12.77,16.85Z"/><path class="cls-5" d="M20.18,16.41a2.09,2.09,0,0,0,2,1.71l1.57.75a2.43,2.43,0,0,0,3.42.22,2.82,2.82,0,0,0,.83-2,1.74,1.74,0,0,0-1.7-1.64,2.84,2.84,0,0,0,.07-1.75,1.53,1.53,0,0,0-1.47-1.16,2.13,2.13,0,0,0-1.73,1.42,1.54,1.54,0,0,0-1.89-.81C20.32,13.55,19.91,15.27,20.18,16.41Z"/><path class="cls-6" d="M22.71,16.5c0-.55,1.1-1.54,1.86-1.05a1.59,1.59,0,0,1,.33,2C24.39,18.05,22.66,17.25,22.71,16.5Z"/><path class="cls-6" d="M21,14.62c0-.2.4-.62.62-.48s.14.55,0,.71S20.93,14.9,21,14.62Z"/><path class="cls-6" d="M24.6,14c0-.21.41-.62.62-.49s.15.55,0,.72S24.56,14.28,24.6,14Z"/><path class="cls-6" d="M26.57,17.47c0-.21.41-.63.62-.49s.15.55,0,.72S26.53,17.74,26.57,17.47Z"/></g></g></svg>