<svg width="24" height="15" viewBox="0 0 24 15" fill="none" xmlns="http://www.w3.org/2000/svg">
<path d="M12.0004 4.25L12.0004 4.25C14.0169 4.24648 17.0041 4.24672 19.4857 4.49612C20.7289 4.62106 21.8276 4.807 22.6094 5.07892C23.0012 5.21518 23.2956 5.36711 23.4879 5.53025C23.6761 5.68994 23.75 5.8446 23.75 6.00008V12.0001C23.75 12.5045 23.748 12.8749 23.7164 13.1608C23.685 13.4454 23.6272 13.6115 23.5407 13.7256C23.4563 13.8367 23.3209 13.9295 23.0656 14.0148C22.8068 14.1013 22.4535 14.171 21.9589 14.2534C19.0819 14.7329 15.2683 14.7422 12.3004 14.7493C12.199 14.7496 12.0987 14.7498 11.9993 14.7501H11.9992C8.54355 14.7608 5.01671 14.7493 2.0411 14.2534C1.54649 14.171 1.19328 14.1013 0.934472 14.0148C0.679207 13.9295 0.543713 13.8367 0.459367 13.7256C0.37279 13.6115 0.314993 13.4454 0.283576 13.1608C0.252025 12.8749 0.249999 12.5045 0.25 12.0001V6.00008C0.25 5.84614 0.322386 5.69343 0.506255 5.53586C0.694278 5.37473 0.98251 5.22436 1.36692 5.08923C2.13413 4.81954 3.21375 4.63434 4.4392 4.50904C6.88541 4.25891 9.84157 4.25367 11.8771 4.25021L11.8767 4.00022L11.8771 4.25021L12.0004 4.25Z" fill="#FFBDDD" stroke="#484848" stroke-width="0.5" stroke-miterlimit="10"/>
<path d="M23.5 6.00001C23.5 5.00001 18.0381 4.51648 12 4.5C5.96192 4.48351 0.508508 5.10409 0.500006 6.00001C0.491505 6.89593 9 7.50001 12 7.50001C15 7.50001 23.5 7.00001 23.5 6.00001Z" fill="#666666" stroke="#484848" stroke-width="0.5" stroke-miterlimit="10"/>
<path d="M11.5 5.50001C13.3801 5.27448 15.4791 6.95554 18 6C18.4026 5.84739 22.5 5.00001 23 6.00001C23.3769 6.75383 10 8.00001 7 7.00001L11.5 5.50001Z" fill="#C5B3B1"/>
<path d="M11.4604 4.35688C12.8958 3.83086 13.7187 2.87479 13 1.88171C12 0.499996 9.12933 1.74261 10 1.88171C17 3 11.5 7.5 11.5 7.5C8.5 7.5 0.503767 6.87513 0.500002 5.99999C0.496237 5.12485 5.5 4.35688 11.4604 4.35688Z" fill="#B8B7B1" stroke="#484848" stroke-width="0.5" stroke-miterlimit="10"/>
<path fill-rule="evenodd" clip-rule="evenodd" d="M11.5 4.75C11.6381 4.75 11.75 4.86193 11.75 5V6.5C11.75 6.63807 11.6381 6.75 11.5 6.75C11.3619 6.75 11.25 6.63807 11.25 6.5V5C11.25 4.86193 11.3619 4.75 11.5 4.75Z" fill="#666666"/>
<path d="M4.40584 12.6629C4.64097 12.8329 4.93045 12.9112 5.21925 12.883C5.50804 12.8549 5.776 12.7221 5.97218 12.5101L6.93205 12.148C7.32507 12.1453 7.70304 11.9997 7.99468 11.7387C8.28632 11.4777 8.47146 11.1194 8.5152 10.7312C8.53194 10.5118 8.50488 10.2911 8.43557 10.0818C8.36627 9.87252 8.25608 9.67878 8.11135 9.51172C8.01598 9.42346 7.90381 9.35511 7.78149 9.31072C7.65918 9.26633 7.52921 9.24681 7.39932 9.25331C7.26943 9.25982 7.14226 9.29222 7.02538 9.34859C6.90849 9.40496 6.80428 9.48415 6.71893 9.58145C6.60379 9.26385 6.38407 8.99396 6.09551 8.81567C5.92996 8.72033 5.73761 8.68171 5.54817 8.70579C5.35872 8.72988 5.18273 8.81531 5.04736 8.94891C4.89262 9.13467 4.78855 9.35695 4.7451 9.59449C4.70164 9.83202 4.72027 10.0769 4.79919 10.3056C4.58252 10.2372 4.34852 10.2489 4.14037 10.3386C3.93223 10.4282 3.76398 10.5898 3.6667 10.7936C3.58461 11.1423 3.61137 11.5079 3.7434 11.8419C3.87544 12.1758 4.1065 12.4622 4.40584 12.6629Z" fill="#808080" stroke="#484848" stroke-width="0.2" stroke-miterlimit="10"/>
<path d="M5.55013 11.6015C5.36433 11.3478 5.45314 10.4723 5.97454 10.3444C6.18375 10.3265 6.39225 10.3882 6.55785 10.5172C6.72345 10.6462 6.8338 10.8327 6.86656 11.0391C6.87226 11.5199 5.81174 11.9412 5.55013 11.6015Z" fill="#F5C7C7"/>
<path d="M4.08773 11.5623C4.02776 11.4621 4.03454 11.124 4.20686 11.0951C4.37918 11.0662 4.47473 11.2666 4.48582 11.3908C4.49692 11.515 4.17486 11.6998 4.08773 11.5623Z" fill="#F5C7C7"/>
<path d="M5.45976 9.72763C5.39979 9.62738 5.40657 9.28929 5.55021 9.2531C5.69385 9.21691 5.81808 9.42456 5.83063 9.54306C5.84318 9.66155 5.52387 9.88354 5.45976 9.72763Z" fill="#F5C7C7"/>
<path d="M7.61079 10.3247C7.54509 10.2229 7.55187 9.88486 7.72993 9.85744C7.90798 9.83003 7.99779 10.0289 8.00461 10.1459C8.01142 10.263 7.72094 10.4438 7.61079 10.3247Z" fill="#F5C7C7"/>
<path d="M14.2122 10.1042C14.1936 10.3854 14.2728 10.6646 14.4364 10.8952C14.6001 11.1258 14.8382 11.2938 15.1111 11.3711L15.9028 12.0281C16.0768 12.3644 16.3776 12.619 16.7392 12.7362C17.1008 12.8535 17.494 12.8238 17.8327 12.6537C18.0218 12.5428 18.1869 12.3957 18.3185 12.221C18.4501 12.0463 18.5455 11.8473 18.5994 11.6355C18.6485 11.3828 18.5999 11.1207 18.4633 10.9014C18.3267 10.6821 18.1122 10.5218 17.8624 10.4524C18.0628 10.1629 18.1658 9.81748 18.1568 9.46557C18.1576 9.2662 18.0918 9.07202 17.9696 8.91348C17.8475 8.75494 17.676 8.64102 17.4821 8.58961C17.2497 8.56243 17.0145 8.60005 16.8028 8.69824C16.5911 8.79644 16.4112 8.95135 16.2834 9.14564C16.2417 8.92616 16.1199 8.72946 15.9416 8.59327C15.7632 8.45708 15.5407 8.39099 15.3168 8.40767C14.708 8.49516 14.2229 9.4152 14.2122 10.1042Z" fill="#808080" stroke="#484848" stroke-width="0.2" stroke-miterlimit="10"/>
<path d="M15.6505 10.5256C15.7304 10.2122 16.5052 9.80903 16.87 10.1994C16.9949 10.3786 17.053 10.5953 17.0346 10.8121C17.0161 11.0289 16.9221 11.2323 16.7688 11.3872C16.389 11.6545 15.5128 10.9456 15.6505 10.5256Z" fill="#F5C7C7"/>
<path d="M14.9426 9.20428C14.9717 9.09033 15.2622 8.90953 15.368 9.02148C15.4739 9.13343 15.3685 9.35533 15.2649 9.42602C15.1613 9.49671 14.8618 9.35358 14.9426 9.20428Z" fill="#F5C7C7"/>
<path d="M17.0979 9.3776C17.1284 9.25794 17.4232 9.08431 17.5247 9.18909C17.6263 9.29388 17.5309 9.52441 17.4201 9.59933C17.3094 9.67425 17.0343 9.53128 17.0979 9.3776Z" fill="#F5C7C7"/>
<path d="M17.7238 11.6429C17.7544 11.5232 18.0506 11.3439 18.1507 11.4544C18.2508 11.5649 18.1568 11.7897 18.0461 11.8646C17.9353 11.9395 17.6617 11.7909 17.7238 11.6429Z" fill="#F5C7C7"/>
</svg>
