<svg width="41" height="17" viewBox="0 0 41 17" fill="none" xmlns="http://www.w3.org/2000/svg">
<g clip-path="url(#clip0_382_52502)">
<path d="M34.8227 8.00955C36.5549 6.04821 37.7608 5.09985 39.9003 3.92033C39.8028 4.56681 39.8119 5.05151 39.9791 5.7355C39.8765 6.14769 39.8081 6.4953 39.801 6.85453C39.7939 7.21474 39.8483 7.57453 39.9756 8.01626C39.8373 8.46996 39.7768 8.83657 39.7842 9.19937C39.7914 9.55809 39.865 9.89932 39.9764 10.2987C39.85 10.7299 39.7951 11.0855 39.8017 11.4465C39.8056 11.6606 39.8311 11.8725 39.8728 12.098C37.8273 10.9518 36.6336 9.97484 34.8227 8.00955Z" fill="#B8B7B1" stroke="black" stroke-width="0.5" stroke-miterlimit="10"/>
<path d="M18.8861 0.513225L18.8861 0.513571L18.8993 0.512913C21.9846 0.358327 25.0655 0.894589 27.9171 2.08254C30.789 3.38272 33.2555 5.43411 35.0569 8.01886C33.382 10.6249 31.0322 12.7299 28.256 14.1091C24.844 15.7856 21.7752 15.8925 18.9152 15.9921L18.878 15.9934L18.878 15.9934C16.0544 16.0922 13.2307 15.8191 10.4795 15.1815C11.3175 14.2707 11.9833 13.2139 12.4434 12.0623C12.9581 10.7737 13.2042 9.39356 13.1667 8.00646L13.1668 8.00645L13.1662 7.99734C13.0172 5.65731 12.0584 3.44675 10.4614 1.74156C13.1933 0.920238 16.032 0.506122 18.8861 0.513225Z" fill="#D1D191" stroke="black" stroke-width="0.5" stroke-miterlimit="10"/>
<path d="M5.25303 12.3736L5.25237 12.3732C3.83772 11.46 2.47695 10.4665 1.17673 9.39757C0.85505 9.13311 0.825832 8.65623 1.11189 8.35795C2.10384 7.32362 3.16614 6.35854 4.29134 5.4697C6.04893 4.09198 7.94646 2.90309 9.95255 1.92258C10.92 2.83183 11.6832 3.93719 12.1907 5.16544C12.7187 6.44355 12.9567 7.82286 12.8874 9.20398C12.6546 11.4396 11.6099 13.5103 9.95431 15.0253C8.33327 14.2407 6.76308 13.3551 5.25303 12.3736Z" fill="#B8B7B1" stroke="black" stroke-width="0.5" stroke-miterlimit="10"/>
<path d="M30.0768 8.44322C29.2668 7.69322 26.4868 4.51321 22.4868 4.51321C19.7961 4.51321 15.4868 6.01322 15.4868 8.44322C15.4868 10.8732 20.2617 12.0132 22.4868 12.0132C25.4868 12.0132 28.4868 10.0132 30.0768 8.44322Z" fill="#B8B7B1" stroke="black" stroke-width="0.5" stroke-miterlimit="10"/>
<path d="M7.48676 8.00318C7.48676 7.33053 6.38765 6.91946 5.92487 7.03157C5.46209 7.14368 5.2307 8.80041 5.92487 8.9748C6.61904 9.14919 7.48676 8.71321 7.48676 8.00318Z" fill="black"/>
</g>
<defs>
<clipPath id="clip0_382_52502">
<rect width="41" height="17" fill="white"/>
</clipPath>
</defs>
</svg>
