<svg xmlns="http://www.w3.org/2000/svg" viewBox="0 0 16.5 40.61"><defs><style type="text/css">.cls-1{fill:#d1d191;}.cls-1,.cls-2,.cls-3,.cls-4{stroke:#000;stroke-miterlimit:10;stroke-width:0.5px;}.cls-2{fill:#b8b7b1;}.cls-3{fill:#4d4a3d;}</style></defs><title>Ресурс 41</title><g id="Слой_2" data-name="Слой 2"><g id="фон"><path class="cls-1" d="M1.84,12.47A21,21,0,0,0,.25,21.6a29.26,29.26,0,0,0,1.36,8.89A9.84,9.84,0,0,1,8,27.57a9.94,9.94,0,0,1,7.31,2.92,32.46,32.46,0,0,0,.92-8.89c-.1-2.87-.2-6-1.91-9.48A17.41,17.41,0,0,0,8,5.13,17.75,17.75,0,0,0,1.84,12.47Z"/><path class="cls-2" d="M1.61,30.49a9.6,9.6,0,0,1,7.6-3.14,9.43,9.43,0,0,1,6.1,3.14,43.24,43.24,0,0,1-2.74,4.88,44.2,44.2,0,0,1-3.65,4.88,31.46,31.46,0,0,1-3.66-3.9A32.09,32.09,0,0,1,1.61,30.49Z"/><path class="cls-3" d="M8.43,10.41c-.75.81-3.5,3.93-3.12,8.07.24,2.68,1.8,5.75,3.12,5.64s2.19-3.42,2.34-5.64A13.18,13.18,0,0,0,8.43,10.41Z"/><path class="cls-4" d="M8.43,33c-.54,0-.87.57-.78.81s1.42.36,1.56,0S9,33,8.43,33Z"/><path class="cls-2" d="M8,5.13,3.44.25h9.13Z"/></g></g></svg>