<svg xmlns="http://www.w3.org/2000/svg" viewBox="0 0 16.5 16.5"><defs><style type="text/css">.cls-1{fill:#9d8372;stroke:#000;stroke-miterlimit:10;stroke-width:0.5px;}</style></defs><title>Ресурс 33</title><g id="Слой_2" data-name="Слой 2"><g id="фон"><path class="cls-1" d="M.25,9.28A3.73,3.73,0,0,1,.94,6.89c1.48-1.65,4.25.62,5.52-.8,1.06-1.19-.35-3.35.69-4.79,1.31-1.79,5.54-1.14,6.21.8s-2.84,5-2.07,6.38c.6,1,2.9-.52,4.14.8s1.18,4.93-.69,6.38c-1.55,1.2-3.7.38-4.83-.8-1.5-1.56-1-3.61-2.07-4C6.38,10.34,5.06,14.36,3,14.07,1.54,13.85.19,11.47.25,9.28Z"/></g></g></svg>