<svg xmlns="http://www.w3.org/2000/svg" viewBox="0 0 16.5 16.5"><defs><style type="text/css">.cls-1{fill:#9d8372;stroke:#000;stroke-miterlimit:10;stroke-width:0.5px;}</style></defs><title>Korm2</title><g id="Слой_2" data-name="Слой 2"><g id="фон"><path class="cls-1" d="M.32,7.27A3.4,3.4,0,0,1,1.64,5c1.67-1,3.59,1.57,4.62.75s-.37-3.13.65-4.52C8.17-.45,12.21.17,12.85,2c.72,2.06-2.58,5.29-2,6,.47.57,2.4-1.57,4-.75A3.53,3.53,0,0,1,16.15,11a3.15,3.15,0,0,1-4,2.26c-1.25-.53-1.59-2.39-2-2.26s.49,3.21-.66,4.51-4,.76-4.61-.75,1.31-3.64.66-4.51-3.25,1.25-4.62,0A3.56,3.56,0,0,1,.32,7.27Z"/></g></g></svg>