<svg xmlns="http://www.w3.org/2000/svg" viewBox="0 0 64.18 63.28"><defs><style type="text/css">.cls-1{fill:#e69573;stroke:#000;stroke-miterlimit:10;stroke-width:0.5px;}</style></defs><title>Sausage</title><g id="Слой_2" data-name="Слой 2"><g id="фон"><path class="cls-1" d="M63.61,45.9c2.39-15.69-9-31.82-21.92-39.66C30.76-.37,18.21-1.38,10.23,2.57,8.77,3.3,5.72,4.81,4.73,8a7.9,7.9,0,0,0,.11,4.73c-1.09-.67-3.08-1.71-4-1-1.53,1.17.19,6.88,2,7,1.36.09,2.61-3,3-4a9.46,9.46,0,0,0,3.53,3.12C13.84,20,17.9,16.7,24,16.6c2.27,0,8.3-.14,13.29,3.38,7.22,5.1,10.8,16.72,8.2,25.63-.74,2.53-3.22,5.08-2.27,8.09a7.47,7.47,0,0,0,3.65,4c-1.21.23-3.86.83-4,2-.2,1.65,4.65,4.21,6,3,1-.89-.1-3.61-.36-4.24,1.72.5,5.49,1.3,8.91-.54C62.31,55.29,63.15,48.92,63.61,45.9Z"/></g></g></svg>