<svg xmlns="http://www.w3.org/2000/svg" width="100.01" height="89.5" viewBox="0 0 100.01 89.5">
  <defs>
    <style type="text/css">
      .a {
        fill: #404040;
      }

      .a, .b, .c, .d, .e, .f {
        stroke: #000;
        stroke-miterlimit: 10;
      }

      .b {
        fill: gray;
      }

      .c {
        fill: #f5c7c7;
      }

      .c, .e, .f {
        stroke-width: 0.5px;
      }

      .d {
        fill: #fff;
      }

      .f {
        fill: none;
      }
    </style>
  </defs>
  <title>Cat_4</title>
  <g>
    <path class="a" d="M86.5,43.5q.51,17.51,1,35l5,1q1.65-11.23,3-23c1.92-16.64,3.21-32.66,4-48a11.23,11.23,0,0,0-3-5,11.37,11.37,0,0,0-6-3h-80a10.65,10.65,0,0,0-6,2,10.73,10.73,0,0,0-4,6,246,246,0,0,0,5,51c1.46,7.09,3.16,13.77,5,20l5-1,3-31Z"/>
    <path class="b" d="M79.88,52.45a56.55,56.55,0,0,1,.39,9.73c-.32,7-1.65,7.9-2.09,8.14-1.89,1-4.6-.6-6.32-1.63a17.87,17.87,0,0,1-6.74-7.51l4.31-1.78a11.59,11.59,0,0,0,7,6.61,43.09,43.09,0,0,0,.26-4.76,44.09,44.09,0,0,0-.42-5.88Z"/>
    <path class="c" d="M76.24,55.37a25,25,0,0,1,.65,5A25.32,25.32,0,0,1,76.4,66a8.66,8.66,0,0,1-7-6.61Z"/>
    <path class="b" d="M23.71,55.06a54.53,54.53,0,0,0,.05,9.21c.6,6.6,1.88,7.4,2.3,7.61,1.81.9,4.28-.73,5.84-1.77a16.7,16.7,0,0,0,6-7.34l-4.1-1.53a11,11,0,0,1-3.16,4.64,10.76,10.76,0,0,1-3.08,1.86,40.47,40.47,0,0,1-.44-4.48,41.5,41.5,0,0,1,.13-5.58Z"/>
    <path class="c" d="M27.23,57.68a24.56,24.56,0,0,0-.39,4.73,23.88,23.88,0,0,0,.7,5.33,8.09,8.09,0,0,0,3.92-2.11,8.32,8.32,0,0,0,2.32-4.39Z"/>
    <path class="a" d="M14.3,43.44c3.64,11,13.94,15.61,17.2,17.06,19.47,8.67,48.73.65,54.76-16.66A25.72,25.72,0,0,0,83,21.43c-4.19-5.93-10-8-16.38-10.18C62.92,10,44.19,3.87,27,13c-2.93,1.55-6.07,3.25-8.85,6.8C12.88,26.48,11.79,35.85,14.3,43.44Z"/>
    <path class="d" d="M38.32,51.6a8.87,8.87,0,0,0,8.43-2.49,9.63,9.63,0,0,0,1-11.87c-.25-.37-2.9-4.2-7.52-4.08a9,9,0,0,0-7.84,5.48C30.34,43.55,33.21,50.21,38.32,51.6Z"/>
    <path class="d" d="M66.42,50.63a9.39,9.39,0,0,1-9.55-.32c-3.72-2.29-6-7.33-4.15-11.65,1.53-3.59,5.3-5.33,8.55-5.42A9.54,9.54,0,0,1,70,38,9.87,9.87,0,0,1,66.42,50.63Z"/>
    <path class="c" d="M50.71,31c2.23.12,3.19,1,3.52.63.58-.68-1.18-4.74-3.89-4.69s-4.27,3.7-3.7,4.43C47,31.84,48.21,30.85,50.71,31Z"/>
    <path class="e" d="M57.05,45.89c-.33-.06-.49-.93-.45-1.54,0-1,.68-2.06,1.08-2s.49.92.45,1.54C58.07,44.91,57.44,46,57.05,45.89Z"/>
    <path class="e" d="M42.81,46.37c.51,0,1.4-.94,1.08-2s-1.58-1.39-2-1.08C41.29,43.77,42,46.3,42.81,46.37Z"/>
    <path class="f" d="M57.2,23.73a12.29,12.29,0,0,0-6.67-1.93,13.5,13.5,0,0,0-1.78.16,14.9,14.9,0,0,0-5,1.77"/>
    <path class="f" d="M50.34,26.92a5.41,5.41,0,0,1-.46-1.54,6,6,0,0,1,.63-3.53"/>
    <path class="b" d="M6.65,81.05A4.08,4.08,0,0,1,11,78.9l3.09-.72c2.45-1.34,5-1,6.16.72a4.33,4.33,0,0,1,.62,3.58,3.35,3.35,0,0,1-3.7,2.16,4.49,4.49,0,0,1-.62,2.86,3,3,0,0,1-3.08,1.44A3.45,3.45,0,0,1,11,86.07a3,3,0,0,1-3.69.72C5.71,85.76,5.7,82.83,6.65,81.05Z"/>
    <path class="c" d="M11.17,81.71c-.16.91,1.3,2.86,2.85,2.3a2.65,2.65,0,0,0,1.42-3.15C14.79,79.7,11.39,80.46,11.17,81.71Z"/>
    <path class="c" d="M7.32,84.22c0,.35.45,1.14.89,1s.49-.85.34-1.15C8.33,83.58,7.35,83.75,7.32,84.22Z"/>
    <path class="c" d="M13.48,86.37c0,.35.45,1.14.9,1s.48-.85.33-1.15C14.49,85.73,13.51,85.9,13.48,86.37Z"/>
    <path class="c" d="M18.41,81.35c0,.35.46,1.14.9,1s.48-.85.34-1.15C19.42,80.71,18.44,80.88,18.41,81.35Z"/>
    <path class="b" d="M95.4,80.73a3.81,3.81,0,0,0-4-2l-2.88-.66c-2.29-1.22-4.64-.87-5.75.66A3.86,3.86,0,0,0,82.17,82a3.12,3.12,0,0,0,3.45,2,4,4,0,0,0,.58,2.62,2.79,2.79,0,0,0,2.88,1.31,3.16,3.16,0,0,0,2.3-2.62,2.89,2.89,0,0,0,3.45.66C96.28,85,96.29,82.36,95.4,80.73Z"/>
    <path class="c" d="M91.18,81.33c.15.84-1.21,2.62-2.65,2.11a2.42,2.42,0,0,1-1.34-2.88C87.8,79.5,91,80.2,91.18,81.33Z"/>
    <path class="c" d="M94.78,83.63c0,.32-.42,1.05-.83.9s-.46-.78-.32-1.06S94.75,83.2,94.78,83.63Z"/>
    <path class="c" d="M89,85.6c0,.32-.43,1-.84.9s-.45-.78-.31-1.06S89,85.17,89,85.6Z"/>
    <path class="c" d="M84.43,81c0,.32-.43,1-.84.9s-.45-.78-.32-1.06S84.4,80.58,84.43,81Z"/>
  </g>
</svg>
