<svg xmlns="http://www.w3.org/2000/svg" width="93.04" height="91.16" viewBox="0 0 93.04 91.16">
  <defs>
    <style type="text/css">
      .a {
        fill: #cc7552;
      }

      .a, .b, .c, .d, .e {
        stroke: #000;
        stroke-miterlimit: 10;
      }

      .b {
        fill: #f5c7c7;
      }

      .b, .c, .d {
        stroke-width: 0.5px;
      }

      .d {
        fill: none;
      }

      .e {
        fill: #fff;
      }
    </style>
  </defs>
  <title>T2_body</title>
  <g>
    <path class="a" d="M16.9,58.66a50.33,50.33,0,0,0-11,32H74a55.75,55.75,0,0,0-16-33Z"/>
    <path class="a" d="M19.3,18.52a82,82,0,0,0,1.08-9.06c.19-2.79.21-5.41.14-7.8l7.26,4.73c-3.3,1.49-4.37,3.14-4.69,4.42-.39,1.54.21,2.82-.57,4.85a7.32,7.32,0,0,1-1.73,2.61Z"/>
    <path class="b" d="M20.94,17.42c.32-2.46.49-4.44.58-5.76a18.27,18.27,0,0,1,1-6,13,13,0,0,1,1-2A13.7,13.7,0,0,1,31.3,10a12.78,12.78,0,0,1,1.47,5.2Z"/>
    <path class="a" d="M19.52.66C19.67.2,25.78.57,31.08,4.35a21.12,21.12,0,0,1,7.87,11l-5.86-.15a27.6,27.6,0,0,0-2.9-5.75A23.92,23.92,0,0,0,27,5.38C23.29,1.72,19.4,1,19.52.66Z"/>
    <path class="a" d="M76.44,48.73q3.84-2.25,8-4.49c2.4-1.28,4.74-2.47,7-3.58l-6.93-3.81A28.93,28.93,0,0,1,81,40.58,30.38,30.38,0,0,1,76.15,44Z"/>
    <path class="b" d="M76.47,46.41l6.83-3c4.6-2,6.19-2.69,6.22-3.72,0-.43-.23-1.57-4-3a14.68,14.68,0,0,0-11-.48Q75.49,41.3,76.47,46.41Z"/>
    <path class="a" d="M92.52,40.66c.29-.32-2.47-4.47-7.25-7.37-6-3.64-13.93-4.54-14.75-2.63-.28.66,0,2,3.89,5.24a29.88,29.88,0,0,1,6.45.15,24.75,24.75,0,0,1,5,1.07C90.12,38.57,92.29,40.92,92.52,40.66Z"/>
    <path class="a" d="M84.52,66.66c-6.49-5.78-8-10.57-8-14s1.34-5,1-9c-.15-1.77-.75-5.39-5-11-10.56-14-27.54-19-35.94-19h0c-5.13.23-11.78.52-17.06,5.05-3,2.55-4.45,5.53-8.7,7.25a16.86,16.86,0,0,1-9.3.75L.59,33.57A45.19,45.19,0,0,0,2.23,48.84a39.71,39.71,0,0,0,6.2,13.1c6.51,8.75,15.48,11.87,21.75,14a60,60,0,0,0,26.34,2.67c4.94-.6,14-1.8,23-8A45.87,45.87,0,0,0,84.52,66.66Z"/>
    <path class="b" d="M37.91,55.49c-6.14-3.28-7.15-4.35-7.88-3.76-1.49,1.22-.59,8.35,4,10.46,4.14,1.9,10.19-.81,10.5-2.59C44.67,58.7,43.31,58.38,37.91,55.49Z"/>
    <path class="c" d="M31.46,68.92c-2.83-.86-3.79-4.62-3.61-4.73s1,2.43,3.56,3.51c2,.89,3.93.3,4,.54S33.39,69.5,31.46,68.92Z"/>
    <path class="d" d="M33.85,62.34a8.77,8.77,0,0,1-.64,1.86,9.2,9.2,0,0,1-1.69,2.46"/>
    <path class="e" d="M65.7,38.86A14.45,14.45,0,0,0,51,36.41C44.65,39,40.35,46,41.78,52.42s7.76,8.87,8.93,9.34c4.5,1.79,12.07,2.41,16.69-2.55C72.59,53.63,71.38,43.84,65.7,38.86Z"/>
    <path class="e" d="M26.38,24.81c6.58-2.44,14.18.84,16.91,6.61,2.48,5.27.39,11-2.42,14.39-1,1.19-4.66,5.2-10.29,5.09A13.67,13.67,0,0,1,17.87,40.11,13.51,13.51,0,0,1,26.38,24.81Z"/>
    <path class="c" d="M47.6,44.48a1.85,1.85,0,0,0-2.6.57,1.54,1.54,0,0,0,.54,2,1.76,1.76,0,0,0,2.12-.28A1.55,1.55,0,0,0,47.6,44.48Z"/>
    <path class="c" d="M35.44,38.91a1.64,1.64,0,0,0-1.78,1.79,1.77,1.77,0,0,0,1.56,1.46,1.54,1.54,0,0,0,1.57-1.29A1.78,1.78,0,0,0,35.44,38.91Z"/>
    <path class="c" d="M61.52,22.66l-6-4a28.48,28.48,0,0,0-9.33,15c7-8.21,10-11.32,10.33-11s-1.86,3.91-7.93,12.63a48.49,48.49,0,0,0,5.93-4.63A48.79,48.79,0,0,0,61.52,22.66Z"/>
    <path class="c" d="M10.65,31.05c-.38-.12-2.55,3.93-3.13,8.61-1.14,9.3,4.55,17.18,5,17S8.81,49.79,9.37,39.9C9.65,34.9,11,31.15,10.65,31.05Z"/>
    <path class="c" d="M24,50.16A7.62,7.62,0,0,0,22.37,54c-.7,4.08,1.9,7.43,2.12,7.35s-1.67-2.95-1.24-7.28C23.47,51.86,24.18,50.2,24,50.16Z"/>
    <path class="c" d="M50,63.37a8.78,8.78,0,0,1-3.28,3.52,9.64,9.64,0,0,1-8.21.77c0-.2,5,.88,9-2A24.71,24.71,0,0,0,50,63.37Z"/>
    <path class="c" d="M4.52,36.66a27,27,0,0,0,2,18c4.36,8.44,13,12,13,12a26.07,26.07,0,0,1-9-8,32,32,0,0,1-4-8A38.59,38.59,0,0,1,4.52,36.66Z"/>
    <path class="c" d="M74.72,56.29c.34.19-1.08,4.55-4.06,8.2-5.91,7.27-15.47,8.7-15.66,8.25s7.49-2.14,14.22-9.39C72.63,59.68,74.4,56.11,74.72,56.29Z"/>
    <path class="c" d="M74.88,64.54A27.39,27.39,0,0,1,60.55,75.61c-9.06,2.77-17.53-1-17.54-.9a25.44,25.44,0,0,0,11.92.84,32.13,32.13,0,0,0,8.5-2.71A39,39,0,0,0,74.88,64.54Z"/>
    <path class="c" d="M68.52,78.66c.08.51-6.25,1.32-14,4-9.66,3.33-15.65,7.55-16,7s2.9-3,6-5a40.76,40.76,0,0,1,19-6C63.79,78.63,68.45,78.22,68.52,78.66Z"/>
    <path class="c" d="M63,83.71c.07.38-3.09.53-6.85,2-4.69,1.77-7.45,4.44-7.66,4s1.26-2,2.7-3.25a13.33,13.33,0,0,1,9.26-3.07C60.63,83.36,63,83.38,63,83.71Z"/>
    <path class="c" d="M12,74.32c-.2.47,4.78,2.13,10.44,5.77,7,4.53,10.84,9.37,11.27,8.9s-1.56-3.29-3.59-5.6a27.64,27.64,0,0,0-14-8.37C15.93,75,12.22,73.91,12,74.32Z"/>
    <path class="c" d="M15.19,79.89c-.16.35,2.4.94,5.11,2.82,3.38,2.35,4.93,5.27,5.22,4.89s-.5-2.1-1.35-3.46a9.06,9.06,0,0,0-6.79-4.22C17.27,79.9,15.34,79.59,15.19,79.89Z"/>
    <path class="c" d="M48,22.15c.12-.18-3-5.15-8.25-6.47-4.38-1.11-8.28.85-8.25,1.08s3.7-1.27,8.25,0C45,18.21,47.9,22.32,48,22.15Z"/>
    <path class="c" d="M73,43.66c.44-.25-.72-4.88-4.28-8.17-3.86-3.55-9.09-4.18-9.29-3.7S62.8,33.24,67,37,72.58,43.89,73,43.66Z"/>
    <path class="c" d="M45.09,25.13c.28-.42-2.79-4.08-7.42-5.47-5-1.51-10,.21-10,.73s3.7-.18,9.13,1.34C42.06,23.2,44.83,25.51,45.09,25.13Z"/>
    <path class="c" d="M74.23,41.74c.2-.07-.22-5.8-4.35-9.9-3.47-3.45-8-4.21-8.12-4s4,1.18,7.58,4.85C73.39,36.87,74,41.81,74.23,41.74Z"/>
    <path class="a" d="M20.52.66v3"/>
  </g>
</svg>
