<svg xmlns="http://www.w3.org/2000/svg" width="24.91" height="14.76" viewBox="0 0 24.91 14.76">
  <defs>
    <style type="text/css">
      .a {
        stroke: #000;
        stroke-miterlimit: 10;
      }
    </style>
  </defs>
  <title>T2_tile</title>
  <path class="a" d="M2.47,11.57C8,8.12,10.65,8.34,12,9.19s1.25,2.2,3,3.58c2.06,1.6,5.73,2.13,7.82.49,2.55-2,1.57-6.36-.4-8.89A10.83,10.83,0,0,0,15.85.75a12.77,12.77,0,0,0-7.91,1c-.12.05-.29.12-.49.22A14.57,14.57,0,0,0,2.79,5.4,14.23,14.23,0,0,0,.46,9"/>
</svg>
