<svg xmlns="http://www.w3.org/2000/svg" width="90.69" height="89.69" viewBox="0 0 90.69 89.69">
  <defs>
    <style type="text/css">
      .a {
        fill: #cc7552;
      }

      .a, .b, .c, .d, .e {
        stroke: #000;
        stroke-miterlimit: 10;
      }

      .b {
        fill: #f5c7c7;
      }

      .b, .c, .d {
        stroke-width: 0.5px;
      }

      .d {
        fill: none;
      }

      .e {
        fill: #fff;
      }
    </style>
  </defs>
  <title>T1_body</title>
  <g>
    <path class="a" d="M73.79,57.19a50.45,50.45,0,0,1,11,32H16.66a55.59,55.59,0,0,1,16-33Z"/>
    <path class="a" d="M71.39,17.05c-.22-2.9-.58-5.93-1.09-9-.14-.86-.29-1.71-.45-2.54L62.9,4.93a14.89,14.89,0,0,1,4.7,4.41,13.45,13.45,0,0,1,2.29,7.46Z"/>
    <path class="b" d="M69.74,16a14,14,0,0,0-1-5.93,8.27,8.27,0,0,0-1.4-2.38,8.74,8.74,0,0,0-3.94-2.46,10.09,10.09,0,0,0-4,3.35,8.29,8.29,0,0,0-1.46,5.21Z"/>
    <path class="a" d="M68,.54A13.71,13.71,0,0,0,59.6,2.88a17.2,17.2,0,0,0-5.75,6.25,21,21,0,0,0-2.11,4.74l5.85-.15A28.21,28.21,0,0,1,60.5,8a30,30,0,0,1,3.2-4.06l-1.6,2A12.73,12.73,0,0,1,68,5.79c2.88.65,4.26,2.2,5.2,1.71.61-.32,1-1.47.06-5.25A11.47,11.47,0,0,0,68,.54Z"/>
    <path class="a" d="M14.25,47.26c-2.63-1.34-5.32-2.83-8-4.49-.75-.46-1.49-.92-2.21-1.38l2.1-6a28.93,28.93,0,0,0,3.58,3.73,30.15,30.15,0,0,0,4.85,3.46Z"/>
    <path class="b" d="M14.22,45a13.79,13.79,0,0,1-6.84-3A12.69,12.69,0,0,1,5.61,40c.19-1.39.38-2.78.56-4.17a10.09,10.09,0,0,1,4.61-2,9.24,9.24,0,0,1,5.4.84Q15.2,39.82,14.22,45Z"/>
    <path class="a" d="M.8,43.37a10.18,10.18,0,0,1,0-5,12.28,12.28,0,0,1,4.59-6.54c5.47-4.32,13.86-4.68,14.74-2.63.29.67,0,2-3.88,5.24a31.21,31.21,0,0,0-6.45.15,31.54,31.54,0,0,0-5,1.07l2.49-.53A14.72,14.72,0,0,0,5,39.94c-.63,2.37-.21,4-1.08,4.55C3.49,44.76,2.63,44.79.8,43.37Z"/>
    <path class="a" d="M6.16,65.19c6.49-5.78,8-10.57,8-14s-1.33-5-1-9c.15-1.77.76-5.38,5-11,10.57-14,27.55-19,36-19h0c5.13.23,11.78.53,17,5.05,3,2.55,4.45,5.53,8.71,7.25a16.73,16.73,0,0,0,9.29.75l.93,6.91a45.13,45.13,0,0,1-1.63,15.27,39.9,39.9,0,0,1-6.21,13.11c-6.5,8.74-15.47,11.86-21.74,14a60.06,60.06,0,0,1-26.35,2.67c-4.93-.6-14-1.79-23-8A44.48,44.48,0,0,1,6.16,65.19Z"/>
    <path class="b" d="M52.78,54c6.14-3.28,7.14-4.35,7.87-3.75,1.5,1.21.6,8.35-4,10.45-4.13,1.91-10.18-.81-10.49-2.59C46,57.23,47.38,56.91,52.78,54Z"/>
    <path class="c" d="M59.94,68.38c1.22-.25,2.79-1.27,2.61-2.25s-1.86-1.78-3-1.18S58,67.73,58.73,68.3A1.49,1.49,0,0,0,59.94,68.38Z"/>
    <path class="d" d="M56.84,60.87a9.13,9.13,0,0,0,.63,1.87,9.36,9.36,0,0,0,1.69,2.45"/>
    <path class="e" d="M25,37.39a14.46,14.46,0,0,1,14.72-2.45c6.33,2.54,10.62,9.62,9.2,16S41.15,59.83,40,60.29c-4.49,1.8-12.07,2.41-16.68-2.55C18.1,52.16,19.31,42.37,25,37.39Z"/>
    <path class="e" d="M64.31,23.34C57.73,20.9,50.12,24.18,47.4,30c-2.48,5.26-.4,11,2.41,14.38,1,1.2,4.67,5.2,10.3,5.09a13.47,13.47,0,0,0,4.2-26.09Z"/>
    <path class="c" d="M43.09,43a1.86,1.86,0,0,1,2.6.58,1.54,1.54,0,0,1-.54,1.95A1.77,1.77,0,0,1,43,45.27,1.57,1.57,0,0,1,43.09,43Z"/>
    <path class="c" d="M55.24,37.44A1.65,1.65,0,0,1,57,39.23a1.77,1.77,0,0,1-1.57,1.46,1.54,1.54,0,0,1-1.57-1.29A1.79,1.79,0,0,1,55.24,37.44Z"/>
    <path class="c" d="M29.16,21.19l6-4a28.22,28.22,0,0,1,6,7,28.67,28.67,0,0,1,3.34,8c-7-8.21-10-11.31-10.34-11S36,25.11,42.1,33.83a49.46,49.46,0,0,1-5.94-4.64A49.35,49.35,0,0,1,29.16,21.19Z"/>
    <path class="c" d="M80,29.58c.38-.11,2.56,3.93,3.13,8.61,1.14,9.3-4.54,17.18-5,17s3.71-6.87,3.15-16.76C81,33.43,79.67,29.68,80,29.58Z"/>
    <path class="c" d="M66.68,48.7c.18-.05,1.29,1.76,1.64,3.81.7,4.09-1.91,7.44-2.13,7.35s1.67-2.94,1.25-7.27C67.22,50.4,66.5,48.74,66.68,48.7Z"/>
    <path class="c" d="M40.68,61.9A8.71,8.71,0,0,0,44,65.42c3.77,2.35,8.21,1,8.2.77s-4.95.88-9-2A22.71,22.71,0,0,1,40.68,61.9Z"/>
    <path class="c" d="M86.16,35.19a27,27,0,0,1-2,18c-4.35,8.44-13,12-13,12a25.62,25.62,0,0,0,9-8,31.1,31.1,0,0,0,4-8A38.05,38.05,0,0,0,86.16,35.19Z"/>
    <path class="c" d="M16,54.82c-.35.2,1.08,4.55,4,8.2,5.92,7.27,15.48,8.7,15.66,8.25s-7.48-2.13-14.22-9.39C18.06,58.21,16.29,54.64,16,54.82Z"/>
    <path class="c" d="M15.81,63.07A27.38,27.38,0,0,0,30.14,74.15c9.06,2.76,17.52-1,17.53-.91a25.41,25.41,0,0,1-11.92.84,31.7,31.7,0,0,1-8.49-2.71A38.63,38.63,0,0,1,15.81,63.07Z"/>
    <path class="c" d="M22.16,77.19c-.08.51,6.26,1.32,14,4,9.66,3.34,15.66,7.55,16,7s-2.89-3-6-5a40.85,40.85,0,0,0-19-6C26.89,77.16,22.23,76.75,22.16,77.19Z"/>
    <path class="c" d="M27.65,82.24c-.08.39,3.09.54,6.85,2,4.69,1.77,7.45,4.44,7.66,4s-1.26-2-2.71-3.24a13.26,13.26,0,0,0-9.25-3.08C30.06,81.9,27.72,81.92,27.65,82.24Z"/>
    <path class="c" d="M78.65,72.85c.2.48-4.79,2.14-10.44,5.77-7,4.53-10.84,9.37-11.27,8.9s1.56-3.29,3.59-5.59a27.6,27.6,0,0,1,14-8.38C74.75,73.49,78.47,72.44,78.65,72.85Z"/>
    <path class="c" d="M75.49,78.42c.17.36-2.39,1-5.1,2.83-3.38,2.34-4.93,5.26-5.22,4.89s.49-2.1,1.35-3.47a9.06,9.06,0,0,1,6.79-4.22C73.42,78.43,75.35,78.12,75.49,78.42Z"/>
    <path class="c" d="M42.67,20.68c-.12-.18,3-5.15,8.25-6.47,4.38-1.11,8.27.85,8.24,1.08s-3.69-1.27-8.24,0C45.72,16.74,42.78,20.85,42.67,20.68Z"/>
    <path class="c" d="M17.72,42.2c-.44-.26.72-4.89,4.28-8.17,3.86-3.56,9.08-4.19,9.28-3.71s-3.39,1.45-7.61,5.19S18.11,42.42,17.72,42.2Z"/>
    <path class="c" d="M45.6,23.67c-.29-.42,2.78-4.08,7.42-5.48,5-1.51,10,.21,10,.73s-3.69-.18-9.12,1.34C48.62,21.73,45.85,24,45.6,23.67Z"/>
    <path class="c" d="M16.46,40.28c-.2-.07.22-5.81,4.35-9.91,3.47-3.45,8-4.21,8.11-4s-4,1.18-7.58,4.85C17.29,35.41,16.65,40.34,16.46,40.28Z"/>
  </g>
</svg>
