<svg xmlns="http://www.w3.org/2000/svg" width="40.25" height="30.26" viewBox="0 0 40.25 30.26">
  <defs>
    <style type="text/css">
      .a {
        fill: gray;
        stroke: #000;
        stroke-miterlimit: 10;
      }
    </style>
  </defs>
  <title>Cat_1_tail</title>
  <path class="a" d="M39.16,22.75a28.54,28.54,0,0,1-15-1c-2.47-.88-7.5-2.68-8-6-.34-2.26,1.75-3,2-6,.29-3.45-2.14-7.91-6-9-4.72-1.34-9.44,3-11,7-1.66,4.29.24,8.36,1,10a18,18,0,0,0,8,8c3,1.73,5.58,2.27,9,3a48.34,48.34,0,0,0,11,1,56.78,56.78,0,0,0,10-1"/>
</svg>
