<svg xmlns="http://www.w3.org/2000/svg" width="40.26" height="22.87" viewBox="0 0 40.26 22.87">
  <defs>
    <style type="text/css">
      .a {
        fill: #dee5fa;
        stroke: #243159;
        stroke-miterlimit: 10;
        stroke-width: 0.5px;
      }
    </style>
  </defs>
  <title>Ресурс 59</title>
  <path class="a" d="M11.49.73a13.35,13.35,0,0,1,7,0c11.82,2.5,16.89-1,20,3a7.11,7.11,0,0,1,1,7c-1.41,2.91-4.81,2.2-12,5-6.56,2.55-6.8,4.33-13,6-5.58,1.49-8.28.83-10,0a7.3,7.3,0,0,1-4-4c-.59-1.77,0-3.26,1-6a18.35,18.35,0,0,1,5-8A12.84,12.84,0,0,1,11.49.73Z"/>
</svg>
