<svg xmlns="http://www.w3.org/2000/svg" width="23.17" height="19.62" viewBox="0 0 23.17 19.62">
  <defs>
    <style type="text/css">
      .a {
        fill: gray;
        stroke: #000;
        stroke-miterlimit: 10;
      }
    </style>
  </defs>
  <title>Cat_3L_paw_left</title>
  <path class="a" d="M1.5,3.89a7.81,7.81,0,0,1,3-3c5.35-2.72,19.93,9.59,18,15-.74,2.07-3.85,2.95-4,3a7.91,7.91,0,0,1-6-1,6.48,6.48,0,0,1-3,1,5.88,5.88,0,0,1-5-2,5.55,5.55,0,0,1-1-4,2,2,0,0,1-1,0c-1.63-.5-2-3.56-2-5A8,8,0,0,1,1.5,3.89Z"/>
</svg>
